<svg xmlns="http://www.w3.org/2000/svg" width="240" height="60" viewBox="0 0 240 60"><metadata> <!--?xpacket begin="﻿" id="W5M0MpCehiHzreSzNTczkc9d"?--> <x:xmpmeta xmlns:x="adobe:ns:meta/" x:xmptk="Adobe XMP Core 5.6-c138 79.159824, 2016/09/14-01:09:01        "><rdf:rdf xmlns:rdf="http://www.w3.org/1999/02/22-rdf-syntax-ns#"><rdf:description rdf:about=""></rdf:description></rdf:rdf></x:xmpmeta> <!--?xpacket end="w"?--> </metadata><defs><style>.cls-1 {
              fill: #112d4e;
              fill-rule: evenodd;
            }</style></defs><path id="Logo" class="cls-1" d="M209.473,68.243a7.823,7.823,0,0,1,.289-2.155,5.276,5.276,0,0,1,.867-1.775,4.158,4.158,0,0,1,1.444-1.2,4.363,4.363,0,0,1,2.022-.444,5.236,5.236,0,0,1,2.166.4,3.826,3.826,0,0,1,1.444,1.1,4.135,4.135,0,0,1,.784,1.626,8.378,8.378,0,0,1,.227,1.987V79.993H222.6V67.1a11.254,11.254,0,0,0-.433-3.17,7.115,7.115,0,0,0-1.321-2.557,6.15,6.15,0,0,0-2.228-1.692,7.438,7.438,0,0,0-3.115-.612,7.665,7.665,0,0,0-3.384.8,6.344,6.344,0,0,0-2.723,2.706V59.664h-3.8v20.33h3.878V68.243Zm20.311-.507a5.191,5.191,0,0,1,.454-1.9,6.11,6.11,0,0,1,1.093-1.669,5.131,5.131,0,0,1,1.651-1.186,5.265,5.265,0,0,1,2.208-.443,5.134,5.134,0,0,1,4,1.5,5.634,5.634,0,0,1,1.444,3.7H229.784Zm11.43,5.284a6.853,6.853,0,0,1-1.857,2.916,5.279,5.279,0,0,1-3.714,1.184,6.129,6.129,0,0,1-2.331-.445,5.516,5.516,0,0,1-1.9-1.268,5.9,5.9,0,0,1-1.258-1.965,7.278,7.278,0,0,1-.5-2.493H244.6a4.31,4.31,0,0,0,.062-0.55q0.021-.337.021-0.718a13.95,13.95,0,0,0-.639-4.332,9.709,9.709,0,0,0-1.837-3.361,8.19,8.19,0,0,0-2.991-2.177,10.1,10.1,0,0,0-4.065-.781,8.649,8.649,0,0,0-3.589.781,9.231,9.231,0,0,0-3.033,2.2,10.9,10.9,0,0,0-2.084,3.381,11.7,11.7,0,0,0-.784,4.373,12.4,12.4,0,0,0,.805,4.608,10.043,10.043,0,0,0,2.186,3.423,9.243,9.243,0,0,0,3.2,2.114,10.214,10.214,0,0,0,3.8.718,9.543,9.543,0,0,0,3.178-.507,9.361,9.361,0,0,0,2.579-1.374,9.013,9.013,0,0,0,3.156-4.544Zm6.725,3.847a5.8,5.8,0,0,0,1.341,1.922,6.8,6.8,0,0,0,2.084,1.331,7.078,7.078,0,0,0,2.744.507,8.246,8.246,0,0,0,2.373-.317,7.139,7.139,0,0,0,1.836-.825,6.585,6.585,0,0,0,1.32-1.1,7.489,7.489,0,0,0,.867-1.141q0,1.1.062,1.733a9.121,9.121,0,0,0,.144,1.014h3.8a11.843,11.843,0,0,1-.165-1.183c-0.056-.535-0.082-1.253-0.082-2.155V66.468a8.861,8.861,0,0,0-.454-2.831,6.151,6.151,0,0,0-1.444-2.367,7.161,7.161,0,0,0-2.559-1.627,10.448,10.448,0,0,0-3.8-.613,9.31,9.31,0,0,0-3.033.486,8.078,8.078,0,0,0-2.5,1.353,7.119,7.119,0,0,0-2.6,4.754l3.713,0.887a4.937,4.937,0,0,1,1.32-2.937,4.2,4.2,0,0,1,3.178-1.163,4.325,4.325,0,0,1,3.28,1.077,3.614,3.614,0,0,1,1.011,2.558,1.591,1.591,0,0,1-.31.971,1.754,1.754,0,0,1-1.217.551l-5.364.8a10.771,10.771,0,0,0-2.393.677,6.285,6.285,0,0,0-1.919,1.225,5.355,5.355,0,0,0-1.258,1.839,6.2,6.2,0,0,0-.454,2.43A5.813,5.813,0,0,0,247.939,76.867Zm4.354-.487a2.9,2.9,0,0,1-.867-2.05,2.665,2.665,0,0,1,.825-2.092,4.046,4.046,0,0,1,2.063-.951l6.066-.929v0.929a7.76,7.76,0,0,1-.454,2.812,4.864,4.864,0,0,1-1.217,1.859,4.632,4.632,0,0,1-1.816,1.015,7.764,7.764,0,0,1-2.249.318A3.094,3.094,0,0,1,252.293,76.38Zm26.971-16.927a4.688,4.688,0,0,0-.516-0.085,6.642,6.642,0,0,0-.763-0.043,7.819,7.819,0,0,0-1.568.17,5.48,5.48,0,0,0-1.609.612,6.794,6.794,0,0,0-1.506,1.184,6.625,6.625,0,0,0-1.259,1.923v-3.55h-3.8v20.33h3.878V69.808q0-3.338,1.507-4.8a5.421,5.421,0,0,1,3.94-1.458,11.582,11.582,0,0,1,1.692.127V59.453Zm7.191,28.572V77.246a6.929,6.929,0,0,0,2.475,2.325,7.677,7.677,0,0,0,3.962.972,8.88,8.88,0,0,0,3.9-.824,8.476,8.476,0,0,0,2.909-2.283,10.152,10.152,0,0,0,1.815-3.4,13.846,13.846,0,0,0,.619-4.226,14.048,14.048,0,0,0-.6-4.143,10.283,10.283,0,0,0-1.733-3.381,8,8,0,0,0-2.847-2.261,8.978,8.978,0,0,0-3.941-.824,7.635,7.635,0,0,0-4.126,1.058,6.97,6.97,0,0,0-2.517,2.577V59.664h-3.755V88.025h3.838ZM297.76,72.7a6.819,6.819,0,0,1-1.176,2.283,5.38,5.38,0,0,1-1.836,1.481,5.83,5.83,0,0,1-4.848,0,5.514,5.514,0,0,1-1.877-1.481,6.607,6.607,0,0,1-1.2-2.283,9.726,9.726,0,0,1-.413-2.894A9.179,9.179,0,0,1,286.826,67a6.681,6.681,0,0,1,1.2-2.241,5.783,5.783,0,0,1,1.877-1.5,5.31,5.31,0,0,1,2.414-.549,5.3,5.3,0,0,1,4.291,2.049A7.143,7.143,0,0,1,297.76,67a9.179,9.179,0,0,1,.413,2.811A9.726,9.726,0,0,1,297.76,72.7Zm11.207-4.966a5.171,5.171,0,0,1,.454-1.9,6.064,6.064,0,0,1,1.093-1.669,5.116,5.116,0,0,1,1.65-1.186,5.271,5.271,0,0,1,2.208-.443,5.133,5.133,0,0,1,4,1.5,5.64,5.64,0,0,1,1.445,3.7H308.967ZM320.4,73.02a6.843,6.843,0,0,1-1.857,2.916,5.275,5.275,0,0,1-3.713,1.184,6.126,6.126,0,0,1-2.331-.445,5.529,5.529,0,0,1-1.9-1.268,5.91,5.91,0,0,1-1.258-1.965,7.278,7.278,0,0,1-.5-2.493H323.78a4.708,4.708,0,0,0,.062-0.55q0.02-.337.02-0.718a13.95,13.95,0,0,0-.639-4.332,9.724,9.724,0,0,0-1.836-3.361,8.186,8.186,0,0,0-2.992-2.177,10.1,10.1,0,0,0-4.064-.781,8.65,8.65,0,0,0-3.59.781,9.251,9.251,0,0,0-3.033,2.2,10.939,10.939,0,0,0-2.084,3.381,11.72,11.72,0,0,0-.784,4.373,12.424,12.424,0,0,0,.805,4.608,10.031,10.031,0,0,0,2.187,3.423,9.224,9.224,0,0,0,3.2,2.114,10.211,10.211,0,0,0,3.8.718A9.541,9.541,0,0,0,318,80.121a9.346,9.346,0,0,0,2.579-1.374,9.013,9.013,0,0,0,3.156-4.544Zm10.3-5.284a5.191,5.191,0,0,1,.454-1.9,6.064,6.064,0,0,1,1.093-1.669,5.109,5.109,0,0,1,1.651-1.186,5.265,5.265,0,0,1,2.208-.443,5.134,5.134,0,0,1,4,1.5,5.634,5.634,0,0,1,1.444,3.7H330.7Zm11.43,5.284a6.862,6.862,0,0,1-1.857,2.916,5.279,5.279,0,0,1-3.714,1.184,6.129,6.129,0,0,1-2.331-.445,5.516,5.516,0,0,1-1.9-1.268,5.879,5.879,0,0,1-1.258-1.965,7.255,7.255,0,0,1-.5-2.493h14.937a4.5,4.5,0,0,0,.062-0.55q0.021-.337.021-0.718a13.95,13.95,0,0,0-.64-4.332,9.707,9.707,0,0,0-1.836-3.361,8.19,8.19,0,0,0-2.991-2.177,10.1,10.1,0,0,0-4.065-.781,8.653,8.653,0,0,0-3.59.781,9.237,9.237,0,0,0-3.032,2.2,10.9,10.9,0,0,0-2.084,3.381,11.7,11.7,0,0,0-.784,4.373,12.425,12.425,0,0,0,.8,4.608A10.046,10.046,0,0,0,329.56,77.8a9.234,9.234,0,0,0,3.2,2.114,10.211,10.211,0,0,0,3.8.718,9.537,9.537,0,0,0,3.177-.507,9.352,9.352,0,0,0,2.58-1.374,9.013,9.013,0,0,0,3.156-4.544Zm17.88-13.568a4.688,4.688,0,0,0-.516-0.085,6.628,6.628,0,0,0-.763-0.043,7.819,7.819,0,0,0-1.568.17,5.48,5.48,0,0,0-1.609.612,6.772,6.772,0,0,0-1.506,1.184,6.625,6.625,0,0,0-1.259,1.923v-3.55h-3.8v20.33h3.879V69.808q0-3.338,1.506-4.8a5.423,5.423,0,0,1,3.94-1.458,11.582,11.582,0,0,1,1.692.127V59.453ZM162.327,68.719a0.2,0.2,0,0,0,.206-0.331A11.771,11.771,0,0,1,159.061,60a20.22,20.22,0,0,0-4.147-12.314A19.33,19.33,0,0,0,139.53,40,19.773,19.773,0,0,0,120,60v11.67a8.254,8.254,0,0,0,7.63,8.319,0.493,0.493,0,0,0,.507-0.5V60h0A11.534,11.534,0,0,1,139.53,48.332a11.414,11.414,0,0,1,10.687,7.607A21.973,21.973,0,0,0,162.327,68.719ZM170.453,40a19.249,19.249,0,0,0-14.175,6.258,0.8,0.8,0,0,0-.042,1.008,21.472,21.472,0,0,1,3.549,7.748,0.185,0.185,0,0,0,.354.036,11.378,11.378,0,0,1,10.353-6.713,11.674,11.674,0,0,1-.039,23.34,22.719,22.719,0,0,1-19.119-10.551,0.2,0.2,0,0,0-.365.118,20.094,20.094,0,0,0,8.092,15.007A19.117,19.117,0,0,0,170.933,80,20.017,20.017,0,0,0,170.453,40ZM158.641,77.575a21.307,21.307,0,0,1-7.348-9.211,0.191,0.191,0,0,0-.37.072V91.678A8.251,8.251,0,0,0,158.559,100a0.487,0.487,0,0,0,.5-0.5V78.382A0.987,0.987,0,0,0,158.641,77.575Z" transform="translate(-120 -40)"></path></svg>