<?xml version="1.0" encoding="utf-8"?>
<!-- Generator: Adobe Illustrator 22.0.1, SVG Export Plug-In . SVG Version: 6.00 Build 0)  -->
<svg version="1.1" id="Layer_1" xmlns="http://www.w3.org/2000/svg" xmlns:xlink="http://www.w3.org/1999/xlink" x="0px" y="0px"
	 viewBox="0 0 1121.7 1365.1" style="enable-background:new 0 0 1121.7 1365.1;" xml:space="preserve">
<style type="text/css">
	.st0{fill:#1B75BB;}
</style>
<g>
	<g>
		<path class="st0" d="M949.5,548.9C949.5,548.7,949.5,548.7,949.5,548.9L1.3,0.9H1.1v326.5c0,76,41.7,142.2,103.2,177.3l0,0
			l948.2,547.8h0.2V725.9C1052.6,650,1011.1,583.9,949.5,548.9z"/>
		<g>
			<path class="st0" d="M102.8,724.9C103,724.9,103,724.9,102.8,724.9C47.4,693.1,8.4,636.5,1.1,570v482.2l334.4-193L102.8,724.9z"
				/>
		</g>
		<g>
			<path class="st0" d="M951.1,328.6C951.1,328.6,950.9,328.6,951.1,328.6c55.4,31.8,94.4,88.4,101.7,154.8V1.1l-334.4,193
				L951.1,328.6z"/>
		</g>
	</g>
	<path d="M241.3,1273.3h92.6v-32.6h-92.6v-40.9h100.9v-35.3H199.3v191h144.9v-35.3h-103L241.3,1273.3L241.3,1273.3z M357.5,1199.8
		h57.3v155.7h41.9v-155.7H514v-35.3H357.5L357.5,1199.8L357.5,1199.8z M122.9,1292.4h-0.6l-79.7-128.1H1.1v191h39.2v-127.9H41
		l79.5,127.9h41.9v-191h-39.2v128.1H122.9z M795,1159.9c-59.2,0-93.8,44.2-93.8,100.9c0,55,34.7,99.2,93.8,99.2
		c59.2,0,93.8-44,93.8-99.2C888.9,1203.9,854.2,1159.9,795,1159.9z M795,1324.5c-37.8,0-51.9-32.2-51.9-63.9
		c0-33.4,14.1-65.6,51.9-65.6c37.8,0,51.9,32.2,51.9,65.6C846.9,1292.4,832.8,1324.5,795,1324.5z M627.9,1243
		c-47.9-12.2-56.9-14.1-56.9-28.9c0-16,15.6-21.6,28.9-21.6c20.1,0,36.3,5.8,37.8,28.9h40.7c0-44.2-36.5-61.4-76.4-61.4
		c-34.5,0-71.4,18.7-71.4,57.7c0,35.9,28.6,46.7,56.9,54.4c28,7.5,56.7,11,56.7,31.5c0,19.5-22.4,23.9-37.2,23.9
		c-22.4,0-42.3-10-42.3-35.3H524c-0.6,47.1,39,67.9,81.4,67.9c51.9,0,79.5-26.2,79.5-61.2C684.6,1255.2,641.9,1246.5,627.9,1243z
		 M959.4,1164.3h-41.9v191h134.9V1320h-93V1164.3z"/>
	<g>
		<path d="M1117,1332.8c0,12.7-10,22.4-22.6,22.4c-12.7,0-22.8-10-22.8-22.4c0-12.2,10.2-22.2,22.8-22.2
			C1107.2,1310.8,1117,1320.6,1117,1332.8z M1077.1,1332.8c0,10,7.3,17.6,17.2,17.6c9.8,0,16.8-7.9,16.8-17.6c0-10-7.1-17.9-17-17.9
			C1084.4,1315.2,1077.1,1323.1,1077.1,1332.8z M1090.8,1344.5h-5.2v-22.2c2.1-0.4,4.8-0.6,8.5-0.6c4.2,0,6,0.6,7.7,1.7
			c1.2,1,2.1,2.7,2.1,4.8c0,2.5-1.9,4.4-4.6,5.2v0.2c2.1,0.8,3.3,2.5,4.2,5.4c0.6,3.3,1,4.8,1.7,5.6h-5.6c-0.6-0.8-1-2.9-1.7-5.4
			c-0.4-2.5-1.7-3.5-4.6-3.5h-2.5L1090.8,1344.5L1090.8,1344.5z M1090.8,1332h2.5c2.9,0,5.2-1,5.2-3.3c0-2.1-1.5-3.3-4.8-3.3
			c-1.5,0-2.3,0.2-2.9,0.2V1332z"/>
	</g>
</g>
</svg>
