<?xml version="1.0" encoding="UTF-8"?>
<svg id="Layer_2" data-name="Layer 2" xmlns="http://www.w3.org/2000/svg" viewBox="0 0 384.03 512.16">
  <defs>
    <style>
      .cls-1 {
        fill: #cb2e28;
      }
    </style>
  </defs>
  <g id="Layer_1-2" data-name="Layer 1">
    <g>
      <path class="cls-1" d="m194.87,0c.63.41,1.22.94,1.91,1.19,4.38,1.61,8.78,3.18,13.19,4.72,3.19,1.12,6.41,2.16,9.61,3.27,3.28,1.15,6.54,2.36,9.81,3.52,3.44,1.21,6.89,2.39,10.33,3.6,3.12,1.1,6.24,2.2,9.36,3.31,3.19,1.14,6.38,2.3,9.58,3.42,3.37,1.18,6.76,2.3,10.13,3.48,3.57,1.24,7.15,2.5,10.71,3.78,4.14,1.49,8.27,3.05,12.42,4.52,4.34,1.54,8.72,2.98,13.06,4.52,4.16,1.47,8.29,3.05,12.45,4.52,3.27,1.15,6.58,2.18,9.86,3.32,3.3,1.14,6.57,2.36,9.85,3.54,3.27,1.17,6.55,2.33,9.82,3.5,3.41,1.22,6.81,2.48,10.22,3.68,4.04,1.43,8.1,2.8,12.14,4.22,2.98,1.05,6.07,1.9,8.89,3.28,3.27,1.61,5.21,4.48,5.76,8.16.09.63.06,1.28.06,1.92-.03,50.16.01,100.32-.13,150.48-.03,11.27-.64,22.54-1.07,33.81-.18,4.71-.56,9.41-.91,14.11-.28,3.74-.59,7.48-1,11.2-.59,5.47-1.17,10.94-1.96,16.38-.9,6.16-1.94,12.29-3.1,18.41-.74,3.9-1.77,7.74-2.7,11.6-1.04,4.31-1.92,8.66-3.23,12.89-2.25,7.26-4.65,14.46-7.62,21.48-2.24,5.3-4.56,10.55-7.2,15.65-3.2,6.16-6.61,12.21-10.69,17.86-3.28,4.55-6.36,9.26-9.88,13.61-4.96,6.14-10.33,11.92-15.92,17.5-7.18,7.16-14.8,13.82-22.68,20.17-4.43,3.57-9.02,6.96-13.67,10.25-5.68,4.02-11.43,7.94-17.26,11.73-10.1,6.58-20.4,12.81-30.98,18.59-6.3,3.44-12.57,6.93-18.9,10.33-5.98,3.21-12.02,6.32-18.03,9.48-.74.39-1.49.78-2.23,1.17h-5.76c-.12-.2-.18-.51-.35-.6-9.59-4.96-19.25-9.79-28.77-14.88-7.09-3.79-14.05-7.82-20.96-11.92-7.46-4.43-14.92-8.87-22.15-13.66-7.5-4.96-14.72-10.34-22.06-15.54-7.93-5.62-15.33-11.91-22.45-18.51-6.95-6.44-13.59-13.21-19.71-20.49-5.05-6-9.73-12.25-14.09-18.75-4.28-6.37-8.07-13.04-11.41-19.94-2.77-5.73-5.29-11.6-7.63-17.53-1.77-4.5-3.11-9.18-4.58-13.79-.96-3.01-1.94-6.02-2.72-9.09-.86-3.38-1.47-6.82-2.24-10.22-.49-2.16-1.12-4.29-1.59-6.45-.42-1.94-.76-3.9-1.06-5.87-.46-2.99-.85-5.99-1.29-8.98-.35-2.37-.76-4.73-1.08-7.1-.59-4.43-1.13-8.87-1.7-13.31-.02-.16-.05-.32-.06-.48-.41-5.57-.91-11.14-1.22-16.72-.63-11.17-1.19-22.34-1.71-33.51-.17-3.75-.17-7.52-.17-11.27C.07,174.23.08,124.88,0,75.54c0-5.65,3.73-9.95,8.92-11.35,3.36-.9,6.6-2.25,9.89-3.42,3.27-1.17,6.53-2.39,9.8-3.57,3.48-1.26,6.96-2.51,10.45-3.73,4.11-1.44,8.25-2.81,12.36-4.26,4.39-1.55,8.75-3.19,13.14-4.75,3.19-1.13,6.42-2.15,9.61-3.27,4.34-1.52,8.66-3.09,12.99-4.64,3.13-1.12,6.26-2.23,9.4-3.34,4.38-1.55,8.75-3.1,13.13-4.63,4.34-1.52,8.69-2.99,13.02-4.52,3.27-1.16,6.5-2.43,9.77-3.59,3.12-1.11,6.28-2.12,9.4-3.21,4.41-1.54,8.82-3.12,13.22-4.68,3.12-1.11,6.23-2.27,9.37-3.35,3.2-1.1,6.44-2.09,9.63-3.2,4.48-1.57,8.95-3.2,13.4-4.86.6-.22,1.08-.77,1.61-1.16,1.92,0,3.84,0,5.76,0Zm167.82,170.35s.09,0,.13,0c0-27.92,0-55.83,0-83.75,0-.72-.04-1.44,0-2.16.08-1.24-.22-2.04-1.59-2.51-4.32-1.47-8.57-3.12-12.86-4.67-2.45-.88-4.95-1.66-7.41-2.53-3.29-1.17-6.55-2.42-9.85-3.57-4.18-1.45-8.39-2.78-12.56-4.24-4.4-1.54-8.76-3.2-13.16-4.76-4.1-1.45-8.24-2.83-12.35-4.26-3.49-1.22-6.96-2.48-10.44-3.73-2.3-.83-4.6-1.67-6.9-2.51-4.11-1.49-8.2-3.02-12.33-4.46-4.17-1.45-8.4-2.75-12.57-4.21-4.32-1.51-8.58-3.19-12.89-4.71-6.12-2.16-12.28-4.21-18.41-6.35-4.4-1.53-8.77-3.14-13.15-4.7-4.33-1.55-8.68-3.05-12.99-4.64-.89-.33-1.58-.35-2.49,0-2.42.97-4.91,1.78-7.38,2.63-4.12,1.42-8.26,2.81-12.38,4.25-3.49,1.22-6.97,2.48-10.44,3.74-3.34,1.21-6.66,2.46-10,3.66-3.14,1.13-6.28,2.25-9.43,3.33-4.17,1.43-8.38,2.77-12.54,4.23-4.4,1.54-8.75,3.21-13.14,4.76-4.12,1.46-8.26,2.82-12.39,4.26-3.49,1.22-6.96,2.5-10.44,3.74-3.12,1.11-6.26,2.17-9.38,3.29-6.11,2.19-12.2,4.46-18.32,6.61-4.17,1.47-8.4,2.75-12.57,4.2-4.79,1.67-9.54,3.45-14.32,5.15-4.6,1.64-9.22,3.23-13.82,4.85-3.07,1.08-3.09,1.11-3.08,3.93.21,54.07-.62,108.15.86,162.21.08,2.96.1,5.92.29,8.87.5,7.57,1.06,15.13,1.64,22.69.34,4.37.77,8.74,1.16,13.1.01.16.07.31.09.47.56,3.7,1.1,7.4,1.67,11.1.53,3.39,1,6.79,1.65,10.16.73,3.83,1.62,7.63,2.46,11.44.72,3.25,1.32,6.53,2.23,9.73,1.07,3.79,2.36,7.53,3.64,11.26,1.39,4.05,2.71,8.13,4.36,12.08,3.35,8.01,7.21,15.78,11.75,23.21,4.62,7.56,9.76,14.76,15.5,21.49,6.17,7.22,12.79,14.01,19.91,20.33,7.79,6.92,15.93,13.39,24.37,19.47,10.44,7.51,21.26,14.46,32.32,21.03,6.45,3.83,12.93,7.61,19.5,11.21,8.51,4.66,17.13,9.1,25.7,13.66,1.15.61,2.24.62,3.4,0,6.14-3.26,12.34-6.39,18.42-9.75,9.6-5.3,19.26-10.51,28.63-16.18,8.97-5.43,17.68-11.3,26.4-17.15,9.39-6.29,18.26-13.28,26.75-20.74,7.03-6.18,13.66-12.76,19.82-19.82,7.6-8.71,14.34-18.05,19.99-28.1,4.99-8.88,9.33-18.12,12.45-27.87,1.52-4.74,3.24-9.43,4.55-14.23,1.35-4.91,2.32-9.93,3.43-14.9.47-2.09.88-4.2,1.28-6.31.54-2.89,1.13-5.77,1.55-8.67.49-3.39.8-6.8,1.23-10.2.51-4.03,1.15-8.04,1.6-12.07.42-3.8.72-7.62.98-11.44.37-5.5.75-11,.94-16.51.37-11.19.78-22.38.88-33.58.15-16.96.04-33.92.04-50.87Z"/>
      <path class="cls-1" d="m117.24,192c0-1.77.08-3.36-.01-4.94-.35-5.69.34-11.34,1.03-16.95.56-4.53,1.84-8.96,3.38-13.32,2.82-7.98,6.88-15.24,12.16-21.83,7.23-9.03,16.03-16.01,26.54-20.94,5.5-2.59,11.22-4.4,17.08-5.77,6.35-1.48,12.84-1.44,19.31-1.18,7.71.31,15.06,2.15,22.27,4.9,6.78,2.59,13,6.08,18.7,10.46,6.82,5.25,12.54,11.59,17.22,18.84,3.32,5.14,6.04,10.59,7.9,16.4,1.67,5.2,2.83,10.53,3.39,16.03.55,5.36.53,10.69.62,16.04.01.7.09,1.41.13,2.05,2,.47,3.87.84,5.69,1.34,6.18,1.7,10.59,5.59,13.34,11.28,1.45,3,2.08,6.25,2.08,9.68-.05,35.11-.05,70.23-.02,105.34,0,6.93-2.49,12.65-7.77,17.11-3.36,2.83-7.19,4.61-11.67,4.75-1.44.05-2.88.07-4.32.07-48.15,0-96.3,0-144.46,0-1.52,0-3.04-.03-4.56-.08-4.31-.12-7.99-1.9-11.24-4.56-2.92-2.38-5.33-5.26-6.52-8.9-.68-2.09-1.29-4.29-1.39-6.47-.22-4.55-.08-9.12-.08-13.67,0-31.12.01-62.23-.01-93.35,0-6.54,2.22-12.04,7.03-16.53,3.45-3.22,7.59-4.82,12.13-5.58.55-.09,1.1-.12,2.05-.21Zm149.59,127.99v-3.43c0-33.04,0-66.08,0-99.12,0-.64.02-1.28,0-1.92-.09-1.63-.54-2.09-2.18-2.19-.72-.04-1.44-.01-2.16-.01-44.64,0-89.28,0-133.92,0-2.8,0-5.6-.01-8.4,0-2.55.02-2.92.38-2.92,2.92,0,33.84,0,67.68,0,101.52,0,.69.11,1.39.17,2.23h149.41Zm-21.56-127.95c0-3.39-.05-6.49.01-9.59.14-7.02-.99-13.84-3.56-20.35-2.21-5.59-5.27-10.73-9.26-15.28-4.8-5.48-10.37-9.94-16.95-13.11-3.36-1.62-6.77-3.01-10.47-3.8-3.49-.74-6.94-1.68-10.53-1.69-3.57,0-7.15-.28-10.69.76-2.34.69-4.9.67-7.2,1.44-4.27,1.43-8.37,3.27-12.26,5.65-7.22,4.43-13.02,10.19-17.51,17.32-2.66,4.22-4.84,8.67-5.93,13.57-.63,2.86-1.53,5.72-1.73,8.61-.32,4.86-.19,9.75-.22,14.62,0,.6.15,1.2.23,1.83h106.07Z"/>
      <path class="cls-1" d="m181.19,281.38c0-1.84-.03-3.68.01-5.52.03-1.21-.36-2.03-1.43-2.78-4.3-3.01-7.36-7.08-8.47-12.19-1.26-5.8-.43-11.43,2.98-16.49,2.36-3.5,5.47-6.17,9.34-7.8,1.73-.72,3.63-1.23,5.49-1.38,3.32-.27,6.64-.37,9.92.83,5.41,1.98,9.36,5.52,12.07,10.53,2.34,4.33,2.58,9.04,1.82,13.72-.61,3.79-2.52,7.15-5.28,9.92-1,1-1.98,2.07-3.15,2.81-1.35.85-1.67,1.93-1.64,3.4.07,3.04.12,6.08-.01,9.11-.1,2.13-.22,4.34-.86,6.35-.92,2.89-3.09,5.01-5.89,6.13-5.57,2.23-10.83-.37-13.29-4.72-1.14-2.01-1.42-4.2-1.58-6.41-.13-1.83-.03-3.68-.03-5.52h0Z"/>
    </g>
  </g>
</svg>