<?xml version="1.0" encoding="UTF-8"?>
<svg id="Layer_2" data-name="Layer 2" xmlns="http://www.w3.org/2000/svg" viewBox="0 0 512.16 512.16">
  <defs>
    <style>
      .cls-1 {
        fill: #cb2e28;
      }
    </style>
  </defs>
  <g id="Layer_1-2" data-name="Layer 1">
    <g>
      <path class="cls-1" d="m0,266.4c.76-1.81,1.53-3.61,2.28-5.42,2.84-6.9,7.84-11.43,14.88-13.92,4.47-1.58,8.95-1.24,13.46-.72,1.23.14,2.58.5,3.57,1.19,1.33.93,2.03.25,2.83-.54,3.04-3.01,6.06-6.03,9.08-9.05,12.01-11.99,24.02-23.98,36.03-35.98,9.97-9.96,19.95-19.93,29.92-29.9,1.58-1.58,1.63-1.67.41-3.63-2.24-3.59-3.81-7.51-4.72-11.57-.94-4.18-1.57-8.5-1.02-12.84,1.42-11.17,5.9-20.74,14.73-28,5.87-4.83,12.46-8.1,20.11-9.01,1.9-.23,3.79-.74,5.68-.72,7.79.09,15.08,2.08,21.82,6.03,1.74,1.02,1.77,1.01,3.12-.35,9.13-9.17,18.23-18.37,27.38-27.52,13.77-13.8,27.57-27.57,41.35-41.36,1.96-1.96,3.84-3.99,5.86-5.88,1.17-1.1,1.64-2.05.95-3.72-1.54-3.75-1.94-7.7-1.47-11.75.86-7.36,4.33-13.21,10.44-17.32,2.13-1.43,4.7-2.22,7.04-3.33.61-.29,1.14-.72,1.71-1.08,3.36,0,6.72,0,10.08,0,.41.33.78.78,1.25.98,1.09.46,2.26.75,3.35,1.2,7.52,3.08,12.22,8.8,14.11,16.49,1.9,7.72.37,15.06-4.75,21.36-6.45,7.92-17.09,11.21-26.87,7.71-2.28-.82-3.51-.3-4.99,1.21-4.52,4.61-9.13,9.13-13.71,13.69-9.27,9.24-18.55,18.48-27.81,27.73-.4.4-.66.94-.98,1.42,39.11-16.4,79.67-22.19,121.58-17.22,41.74,4.95,79.49,20.32,113.35,45.54.62-.56,1.22-1.07,1.77-1.62,3.95-3.87,7.85-7.8,11.87-11.61,2.55-2.41,5.53-3.5,8.9-1.71,1.17.62,2.28,1.45,3.21,2.39,9.88,9.81,19.72,19.65,29.55,29.51,2.46,2.46,5.24,4.66,6.79,7.91v5.28c-1.75,3.15-4.55,5.39-7.02,7.88-9.74,9.84-19.62,19.54-29.4,29.34-1.77,1.77-3.66,2.84-6.25,2.86-2.4.02-4.32-.77-5.98-2.42-2.92-2.89-5.84-5.79-8.76-8.68-8.19-8.11-16.38-16.23-24.56-24.34-.51-.5-1-1.02-1.5-1.53-3.39-3.37-3.18-8.77.42-12.15,2.53-2.38,5.02-4.79,7.5-7.22.67-.65,1.24-1.41,2.02-2.29-35.71-25.86-75.31-40.25-119.11-42.34-49.22-2.34-94.3,10.57-135.29,38.2.19.85.2,1.6.51,2.21,3.3,6.43,4.33,13.29,3.87,20.42-.8,12.45-6.36,22.34-16.13,29.98-4.11,3.22-8.76,5.4-13.72,6.83-2.95.85-6.02,1.52-9.19,1.3-2.07-.14-4.16-.01-6.23-.11-3.52-.17-6.83-1.27-10.11-2.44-1.7-.61-3.36-1.34-5.31-2.12-23,33.41-35.92,70.38-38.29,110.7-3.09,52.76,11.15,100.76,42.25,143.91.9-.8,1.74-1.47,2.5-2.22,2.42-2.39,4.87-4.77,7.21-7.24,2.3-2.43,5.09-3.05,8.24-2.53,1.8.3,3.14,1.45,4.37,2.69,4.48,4.5,8.94,9.03,13.42,13.53,6.32,6.37,12.64,12.72,18.96,19.09.56.56,1.09,1.15,1.66,1.7,3.35,3.18,3.24,8.63-.08,11.88-5.46,5.34-10.84,10.76-16.24,16.16-5.51,5.51-11,11.03-16.51,16.53-1.44,1.44-2.78,3.01-4.78,3.75-.17.06-.25.39-.37.59h-4.8c-1.67-1.3-3.49-2.46-4.99-3.94-7.76-7.64-15.43-15.37-23.13-23.07-3.32-3.32-6.68-6.59-9.92-9.99-2.6-2.73-3.85-5.87-1.85-9.51.64-1.16,1.46-2.27,2.37-3.22,2.3-2.39,4.73-4.67,7.07-7.03,1.82-1.83,3.59-3.7,5.41-5.57-25.13-33.87-40.46-71.52-45.46-113.17-5.03-41.91.79-82.43,17.17-121.47-1.02.54-1.82,1.15-2.53,1.85-3.57,3.52-7.11,7.07-10.66,10.61-10.12,10.08-20.24,20.16-30.36,30.25-1.34,1.34-1.4,2.06-.76,3.83.61,1.7,1.27,3.44,1.52,5.21.66,4.75-.14,9.37-2.14,13.71-2.29,4.97-5.92,8.9-10.81,11.32-4.65,2.31-9.56,3.43-14.95,2.51-4.45-.76-8.37-2.32-11.83-5.1-4.12-3.3-7.03-7.41-8.26-12.63-.19-.79-.88-1.47-1.34-2.2,0-2.72,0-5.44,0-8.16Zm147.83-93.95c13.53.5,25.15-11.28,24.98-25.07-.18-14.08-11.31-24.95-24.96-24.92-14.39.03-25.1,11.27-25.18,25.02-.09,13.55,10.9,25.33,25.17,24.97Zm-23.42,296.16c.9,2,21.79,22.83,23.56,23.58,2.65-1.93,22.38-21.95,23.08-23.3-7.73-7.84-15.39-15.61-23.27-23.59-7.85,7.83-15.63,15.59-23.37,23.31ZM469.51,170.8c.69-.57,1.26-.98,1.74-1.46,6.69-6.67,13.37-13.35,20.04-20.04,1.76-1.76,1.8-2.08.06-3.83-6.71-6.75-13.45-13.47-20.21-20.17-1.77-1.75-1.95-1.41-3.44.07-6.77,6.7-13.49,13.44-20.21,20.19-1.63,1.64-1.61,2.02.02,3.65,3.77,3.76,7.56,7.49,11.33,11.25,2.98,2.98,5.93,5.98,8.92,8.96.48.48,1.07.85,1.74,1.39ZM270.43,33.16c5.44.08,8.7-4.1,8.6-8.5-.1-4.51-2.97-8.22-8.47-8.42-3.89-.14-8.39,2.88-8.42,8.4-.04,5.65,4.57,8.72,8.29,8.52ZM24.92,261.93c-4.71-.19-7.88,3.44-7.76,7.74.14,4.76,3.77,8.57,8.42,8.55,4.24-.01,7.97-3.39,7.94-8.07-.03-4.74-3.71-8.27-8.6-8.22Z"/>
      <path class="cls-1" d="m377.28,512.16c-.02-.08-.01-.2-.06-.23-3.59-1.93-4.92-5.55-6.6-8.89-3.6-7.14-7.18-14.29-10.74-21.45-3.49-7.02-6.95-14.04-10.43-21.07-.7-1.41-1.25-2.94-2.16-4.2-.61-.85-1.63-1.55-2.61-1.95-2.99-1.2-6.08-2.17-9.1-3.31-3.61-1.37-7.19-2.85-10.79-4.24-5.91-2.27-11.84-4.47-17.75-6.75-5.6-2.17-11.15-4.45-16.75-6.6-4.8-1.85-9.65-3.55-14.45-5.39-4.57-1.74-9.1-3.58-13.66-5.36-.81-.32-1.65-.57-2.46-.91-2.79-1.17-4.16-3.56-5.22-6.19-2.94-7.33-5.87-14.66-8.78-22-1.75-4.4-3.47-8.82-5.22-13.22-2.23-5.58-4.49-11.14-6.71-16.72-1.51-3.82-2.93-7.68-4.45-11.5-1.75-4.4-3.59-8.76-5.34-13.15-2.23-5.59-4.39-11.2-6.63-16.78-2.5-6.23-5.08-12.42-7.59-18.65-1.83-4.54-3.55-9.13-5.37-13.67-2.18-5.43-4.43-10.83-6.61-16.27-1.5-3.74-2.91-7.52-4.38-11.27-1.38-3.51-2.78-7.02-4.18-10.52-1.6-3.97-3.22-7.94-4.82-11.91-1.83-4.53-3.65-9.06-5.48-13.59-2.1-5.21-4.34-10.37-6.26-15.65-1.32-3.61-.75-6.91,2.22-9.83,8.59-8.42,17-17.02,25.53-25.5,1.38-1.37,2.75-2.67,4.77-3.36,2.31-.79,4.31-.15,6.26.55,4.81,1.73,9.53,3.71,14.26,5.63,4.63,1.88,9.21,3.86,13.85,5.71,4.54,1.81,9.12,3.5,13.67,5.29,3.54,1.39,7.05,2.85,10.57,4.28,3.81,1.54,7.61,3.09,11.43,4.62,4.54,1.82,9.09,3.61,13.65,5.41,5.82,2.29,11.65,4.53,17.45,6.87,7.92,3.19,15.78,6.51,23.71,9.68,9.54,3.82,19.14,7.51,28.69,11.3,9.98,3.96,19.95,7.96,29.91,11.97,9.68,3.9,19.33,7.85,29.01,11.76,2.44.99,3.88,2.83,4.77,5.24,1.46,3.93,3.01,7.84,4.51,11.76,1.53,3.99,3.04,7.98,4.57,11.96,1.78,4.64,3.58,9.26,5.36,13.9,2.24,5.84,4.44,11.7,6.7,17.54,2.51,6.48,5.09,12.94,7.6,19.43,1.17,3.02,2.27,6.07,3.4,9.11.56,1.52,1.35,2.66,2.97,3.46,12.29,6.06,24.51,12.25,36.76,18.38,4.31,2.15,8.67,4.2,12.96,6.38,2.17,1.1,3.97,2.65,4.9,5.01v5.28c-1.18,1.49-2.24,3.11-3.57,4.45-32.45,32.5-64.87,65.02-97.43,97.4-9.42,9.36-18.22,19.37-28.6,27.75h-5.28ZM193.98,204.48c-1.48,1.44-2.42,2.47-3.47,3.36-1.11.94-1.12,1.92-.58,3.15,1.22,2.81,2.38,5.65,3.51,8.5,1.46,3.67,2.82,7.38,4.3,11.05,2.51,6.22,5.11,12.41,7.62,18.63,2.28,5.65,4.46,11.35,6.72,17.01,1.75,4.39,3.58,8.75,5.33,13.15,1.49,3.75,2.87,7.53,4.37,11.27,2.5,6.22,5.1,12.41,7.6,18.63,2.28,5.65,4.49,11.33,6.72,17,1.82,4.62,3.62,9.24,5.47,13.85,1.47,3.67,2.99,7.32,4.47,10.98,1.51,3.74,3.01,7.49,4.5,11.24,1.77,4.46,3.5,8.94,5.29,13.39,2.19,5.44,4.44,10.85,6.64,16.28,1.95,4.82,3.98,9.61,5.75,14.49.52,1.45,1.48,2.04,2.62,2.49,6.09,2.41,12.22,4.76,18.34,7.1,5.99,2.29,11.99,4.57,17.99,6.83,3.91,1.48,7.84,2.91,11.74,4.41,2.94,1.13,5.85,2.35,8.78,3.5,3.04,1.19,6.08,2.34,9.13,3.49,3.77,1.42,7.57,2.76,11.33,4.23,2.48.97,2.47,1.06,4.28-.74,9.31-9.29,18.62-18.57,27.92-27.87,12.63-12.64,25.26-25.28,37.89-37.93,6.73-6.73,13.43-13.49,20.2-20.19,1.04-1.03,1.45-2,.87-3.38-.83-1.98-1.64-3.97-2.4-5.97-1.84-4.78-3.64-9.58-5.48-14.37-1.48-3.84-3-7.66-4.48-11.5-1.54-3.99-3.04-7.99-4.56-11.99-1.4-3.69-2.77-7.39-4.2-11.06-1.57-4.06-3.22-8.09-4.78-12.16-1.41-3.69-2.68-7.43-4.18-11.09-.37-.91-.83-1.91-2.18-2.28-1.97-.54-3.8-1.56-5.7-2.34-3.66-1.51-7.33-3.02-11.01-4.47-4.54-1.78-9.13-3.45-13.66-5.27-5.36-2.16-10.66-4.49-16.02-6.65-4.53-1.82-9.14-3.45-13.68-5.26-4.71-1.88-9.36-3.92-14.07-5.8-5.27-2.11-10.6-4.06-15.86-6.18-7.92-3.19-15.79-6.48-23.71-9.69-5.8-2.35-11.63-4.61-17.43-6.93-4.25-1.7-8.48-3.44-12.73-5.13-4.11-1.63-8.24-3.23-12.35-4.85-3.68-1.45-7.36-2.91-11.04-4.36-4.32-1.71-8.65-3.41-12.96-5.15-4.7-1.9-9.36-3.92-14.09-5.75-3.39-1.32-3.43-1.23-6.01,1.37-1.65,1.66-1.64,1.9.08,3.61,10.88,10.86,21.76,21.72,32.64,32.58,15.34,15.32,30.69,30.64,46.02,45.98,7.08,7.08,14.12,14.2,21.2,21.28,1.45,1.45,1.49,1.44,3.34.29,4.27-2.64,8.85-4.57,13.66-5.94,4.89-1.39,9.93-1.48,14.98-1.29,5.18.19,10.11,1.55,14.82,3.5,8.03,3.32,14.67,8.56,19.83,15.6,5.39,7.36,8.25,15.69,9.12,24.7.57,5.87-.4,11.65-2.17,17.21-2.73,8.55-7.48,15.87-14.38,21.72-8.27,7.01-17.88,10.67-28.65,11.26-3.09.17-6.2.2-9.27-.72-2.27-.68-4.76-.66-6.97-1.45-5.13-1.83-10-4.2-14.34-7.63-4.32-3.41-8.01-7.33-10.95-11.96-2.43-3.83-4.36-7.87-5.49-12.3-.78-3.08-1.63-6.13-1.71-9.34-.12-4.95-.2-9.89,1.07-14.74.38-1.46.63-2.98,1.25-4.33,1.55-3.38,3.23-6.7,4.95-10,.97-1.86,1.06-1.84-.31-3.22-6.1-6.1-12.2-12.18-18.3-18.28-12.69-12.67-25.39-25.34-38.08-38.03-10.29-10.29-20.59-20.57-30.83-30.9-4.67-4.71-9.23-9.54-14.21-14.7Zm257.26,157.86c-29.64,29.61-59.15,59.1-88.74,88.65,1.12,2.25,2.28,4.58,3.44,6.91,3.81,7.62,7.63,15.25,11.44,22.87,1.42,2.84,2.83,5.68,4.25,8.51.47.94,1.09,1.06,1.85.26.27-.28.6-.5.88-.78,6.4-6.41,12.8-12.83,19.2-19.23,8.53-8.53,17.06-17.05,25.59-25.58,7.46-7.46,14.91-14.94,22.38-22.4,9.53-9.52,19.08-19.03,28.61-28.56,3.44-3.44,6.86-6.92,10.34-10.45-.33-.41-.51-.84-.82-.99-12.85-6.44-25.7-12.86-38.43-19.21Zm-116.07-58.21c-17.22-.53-31.05,14.54-30.99,30.87.06,16.93,14.09,31.35,31.3,31.1,17.04-.25,30.77-13.47,30.82-31.27.05-16.72-13.82-31.21-31.12-30.7Z"/>
    </g>
  </g>
</svg>