<?xml version="1.0" encoding="UTF-8"?>
<svg version="1.1" xmlns="http://www.w3.org/2000/svg" width="500" height="500">
<path d="M0 0 C4.62 0 9.24 0 14 0 C14.33 6.27 14.66 12.54 15 19 C16.98 18.34 18.96 17.68 21 17 C25.67913674 16.90780026 31.00833373 17.51869394 35 20 C41.42915134 27.12079598 42.30364414 32.32447321 42.21875 41.80078125 C41.80164227 47.90098185 39.41545703 52.70387965 35 57 C29.00181397 60.59056148 23.67703091 59.98435802 17 59 C16.01 59 15.02 59 14 59 C9.38 59 4.76 59 0 59 C0 39.53 0 20.06 0 0 Z M17 32 C14.53675931 35.69486103 14.61008312 37.63293092 15 42 C15.98048938 44.06402685 15.98048938 44.06402685 18 45 C22.07794425 45.42478586 23.53076119 45.31282587 27 43 C27.92678615 39.42525344 28.40411569 37.0507008 27.0625 33.5625 C23.70799213 31.02120616 21.13462495 31.54059723 17 32 Z " fill="#D23A25" transform="translate(75,234)"/>
<path d="M0 0 C1.54300781 -0.03867188 1.54300781 -0.03867188 3.1171875 -0.078125 C8.98222886 0.56169769 12.27518365 4.05382511 15.83203125 8.43359375 C19.4657916 13.53842324 19.78293598 19.19493291 19.125 25.25 C17.79166076 30.96877532 15.3075962 35.1624628 11.125 39.25 C5.88306968 42.21713037 1.98845783 42.7228595 -3.875 42.25 C-5.525 41.59 -7.175 40.93 -8.875 40.25 C-9.205 46.19 -9.535 52.13 -9.875 58.25 C-14.495 58.25 -19.115 58.25 -23.875 58.25 C-23.875 39.44 -23.875 20.63 -23.875 1.25 C-18.925 1.25 -13.975 1.25 -8.875 1.25 C-5.71490467 0.19663489 -3.3196864 0.04967112 0 0 Z M-7.75 15.3125 C-9.54330867 18.40097604 -9.30341969 20.76143969 -8.875 24.25 C-7.41502013 26.87716577 -7.41502013 26.87716577 -4.875 28.25 C-1.36140932 28.25 0.40028132 27.8812066 3.0625 25.5625 C4.52609489 22.37702876 4.11428968 20.57118677 3.125 17.25 C2.06154948 15.26970318 2.06154948 15.26970318 0.125 14.25 C-2.99311483 13.86023565 -4.98519567 13.74577755 -7.75 15.3125 Z " fill="#373634" transform="translate(190.875,251.75)"/>
<path d="M0 0 C4.95 0 9.9 0 15 0 C18 11.625 18 11.625 18 15 C18.66 15 19.32 15 20 15 C20.13277344 14.25234375 20.26554687 13.5046875 20.40234375 12.734375 C20.57894531 11.74953125 20.75554687 10.7646875 20.9375 9.75 C21.19853516 8.28820312 21.19853516 8.28820312 21.46484375 6.796875 C21.90135133 4.51556532 22.43666368 2.25334527 23 0 C27.62 0 32.24 0 37 0 C38.32 4.29 39.64 8.58 41 13 C42.32 8.71 43.64 4.42 45 0 C49.95 0 54.9 0 60 0 C58.1256486 7.08088307 56.10028104 14.10847669 54 21.125 C53.7510498 21.9593457 53.50209961 22.79369141 53.24560547 23.65332031 C51.59631121 29.13800678 49.83405153 34.57426423 48 40 C43.71 40 39.42 40 35 40 C34.28385417 38.07942708 33.56770833 36.15885417 32.8515625 34.23828125 C31.92943604 31.81452683 30.9631058 29.4077645 30 27 C28.68 31.29 27.36 35.58 26 40 C21.38 40 16.76 40 12 40 C8.04 26.8 4.08 13.6 0 0 Z " fill="#373735" transform="translate(280,253)"/>
<path d="M0 0 C5.7491395 3.63721071 8.54660285 7.64775712 11.0625 13.9375 C11.0625 17.5675 11.0625 21.1975 11.0625 24.9375 C2.4825 25.2675 -6.0975 25.5975 -14.9375 25.9375 C-12.99417668 28.31744368 -12.99417668 28.31744368 -9.4375 28.1875 C-5.88082332 28.31744368 -5.88082332 28.31744368 -3.9375 25.9375 C-0.8984375 26.1796875 -0.8984375 26.1796875 2.6875 26.8125 C3.87601562 27.01617187 5.06453125 27.21984375 6.2890625 27.4296875 C7.20429688 27.59726562 8.11953125 27.76484375 9.0625 27.9375 C9.0625 31.9375 9.0625 31.9375 6.875 34.5 C0.74027492 39.81676173 -4.28609082 41.31299598 -12.2734375 41.21875 C-19.11057706 40.49694055 -24.6311795 37.25707238 -28.9375 31.9375 C-33.0345726 26.28636537 -32.81177316 19.62936654 -31.9375 12.9375 C-29.64205261 6.93910867 -25.47313612 2.63191385 -19.6796875 -0.14453125 C-13.72545334 -2.13775778 -5.94992481 -2.15634859 0 0 Z M-11.9375 9.9375 C-13.2575 11.2575 -14.5775 12.5775 -15.9375 13.9375 C-11.9775 13.9375 -8.0175 13.9375 -3.9375 13.9375 C-5.2575 12.6175 -6.5775 11.2975 -7.9375 9.9375 C-9.2575 9.9375 -10.5775 9.9375 -11.9375 9.9375 Z " fill="#3A3937" transform="translate(390.9375,253.0625)"/>
<path d="M0 0 C5.06877127 4.22397606 7.62501879 7.98360634 8.43359375 14.5703125 C8.78110173 21.65412907 7.8200791 26.38286123 3.0859375 31.73828125 C-1.79140041 36.85098668 -6.75210031 38.77911073 -13.7265625 39.11328125 C-20.70037176 38.93500342 -26.40915804 36.65408695 -31.3515625 31.67578125 C-35.27216238 26.57572514 -36.05760279 20.61386917 -35.82421875 14.3125 C-34.85983901 8.03861385 -31.62399077 3.85825957 -26.9140625 -0.26171875 C-19.13890834 -5.23781741 -7.71786726 -5.08749209 0 0 Z M-18.8515625 11.73828125 C-20.5752328 14.98283711 -20.70844033 18.16729305 -19.9140625 21.73828125 C-17.84242621 23.9812876 -17.84242621 23.9812876 -14.9140625 24.73828125 C-12.06465869 24.60259535 -10.47768762 24.10755288 -8.1015625 22.55078125 C-6.32399687 19.83765476 -6.52554315 17.91118929 -6.9140625 14.73828125 C-7.81642085 12.25722931 -7.81642085 12.25722931 -9.9140625 10.73828125 C-13.33415271 10.31076997 -15.74538975 10.13509532 -18.8515625 11.73828125 Z " fill="#383736" transform="translate(273.9140625,255.26171875)"/>
<path d="M0 0 C4.62 0 9.24 0 14 0 C14 2.64 14 5.28 14 8 C16.64 8 19.28 8 22 8 C22 11.96 22 15.92 22 20 C19.36 20 16.72 20 14 20 C14.33 24.29 14.66 28.58 15 33 C17.31 33.66 19.62 34.32 22 35 C22 39.29 22 43.58 22 48 C7.77738065 48.47408731 7.77738065 48.47408731 1.859375 43.03125 C-0.84756475 38.61825579 -0.43614369 34.75275626 -0.25 29.6875 C-0.23195312 28.75615234 -0.21390625 27.82480469 -0.1953125 26.86523438 C-0.14834888 24.57575803 -0.08269475 22.28841816 0 20 C-1.65 20 -3.3 20 -5 20 C-5 16.04 -5 12.08 -5 8 C-3.35 8 -1.7 8 0 8 C0 5.36 0 2.72 0 0 Z " fill="#D13620" transform="translate(142,245)"/>
<path d="M0 0 C4.62 0 9.24 0 14 0 C14 19.47 14 38.94 14 59 C9.38 59 4.76 59 0 59 C0 39.53 0 20.06 0 0 Z " fill="#373634" transform="translate(342,234)"/>
<path d="M0 0 C0 4.62 0 9.24 0 14 C-2.31 14 -4.62 14 -7 14 C-10.24849977 15.72226496 -10.24849977 15.72226496 -11 19 C-11.14777936 20.69867188 -11.24747066 22.40177489 -11.31640625 24.10546875 C-11.35830078 25.08837891 -11.40019531 26.07128906 -11.44335938 27.08398438 C-11.48267578 28.10814453 -11.52199219 29.13230469 -11.5625 30.1875 C-11.60568359 31.22326172 -11.64886719 32.25902344 -11.69335938 33.32617188 C-11.79944263 35.88395702 -11.90022586 38.44196098 -12 41 C-16.62 41 -21.24 41 -26 41 C-26 27.8 -26 14.6 -26 1 C-20.66666667 1 -15.33333333 1 -10 1 C-7 0 -7 0 0 0 Z " fill="#393837" transform="translate(238,252)"/>
<path d="M0 0 C0 4.62 0 9.24 0 14 C-2.31 14 -4.62 14 -7 14 C-9.02224714 15.01947079 -9.02224714 15.01947079 -10 17 C-10.50479657 19.6068023 -10.50479657 19.6068023 -10.51171875 22.54296875 C-10.54716797 23.61611328 -10.58261719 24.68925781 -10.61914062 25.79492188 C-10.64169922 26.91447266 -10.66425781 28.03402344 -10.6875 29.1875 C-10.72166016 30.31865234 -10.75582031 31.44980469 -10.79101562 32.61523438 C-10.8735557 35.40980557 -10.93845235 38.20488768 -11 41 C-15.62 41 -20.24 41 -25 41 C-25 27.8 -25 14.6 -25 1 C-19.72 1 -14.44 1 -9 1 C-7 0 -7 0 0 0 Z " fill="#353432" transform="translate(430,252)"/>
<path d="M0 0 C4.62 0 9.24 0 14 0 C14 13.2 14 26.4 14 40 C9.38 40 4.76 40 0 40 C0 26.8 0 13.6 0 0 Z " fill="#D13722" transform="translate(121,253)"/>
<path d="M0 0 C2.375 0.9375 2.375 0.9375 4 3 C5.32616662 7.46935373 5.56026843 10.80638465 3.5625 15.0625 C0.66367797 17.25429227 -1.39159341 17.72902362 -5.02734375 17.484375 C-8.51060972 16.62907801 -10.00028288 14.87459336 -12 12 C-12.61304266 8.32174405 -12.26122201 6.53431774 -10.625 3.1875 C-7.67331003 -0.78592881 -4.73402379 -0.3264844 0 0 Z " fill="#D54834" transform="translate(131,234)"/>
<path d="M0 0 C2.90085398 1.64381725 3.04170295 3.14074746 4 6.375 C4 10 4 10 2 13 C-1 15 -1 15 -4.625 15 C-9.56231454 13.53709199 -9.56231454 13.53709199 -11 11 C-11.49573337 7.10495209 -11.58016848 4.90506283 -9.4375 1.5625 C-6.09493717 -0.58016848 -3.89504791 -0.49573337 0 0 Z " fill="#D54734" transform="translate(439,279)"/>
<path d="M0 0 C0.66 0.33 1.32 0.66 2 1 C-0.97 3.97 -3.94 6.94 -7 10 C-7.33 9.34 -7.66 8.68 -8 8 C-7.04578192 6.85073734 -6.08647955 5.70569459 -5.125 4.5625 C-4.59132813 3.92441406 -4.05765625 3.28632813 -3.5078125 2.62890625 C-2 1 -2 1 0 0 Z " fill="#747372" transform="translate(369,254)"/>
</svg>
