<?xml version="1.0" encoding="UTF-8"?>
<svg version="1.1" xmlns="http://www.w3.org/2000/svg" width="388" height="85">
<path d="M0 0 C1.9808859 0.01166943 3.96160192 0.10903224 5.9375 0.25 C7.55978516 0.35054688 7.55978516 0.35054688 9.21484375 0.453125 C10.59349609 0.72382812 10.59349609 0.72382812 12 1 C14.05073051 4.07609577 14.2500041 4.70025304 14.23046875 8.16796875 C14.22853516 8.97943359 14.22660156 9.79089844 14.22460938 10.62695312 C14.21236328 11.47193359 14.20011719 12.31691406 14.1875 13.1875 C14.1865332 14.4259668 14.1865332 14.4259668 14.18554688 15.68945312 C14.1487847 20.8729203 13.73963638 25.86988206 13 31 C14.32 31 15.64 31 17 31 C17.185625 30.29875 17.37125 29.5975 17.5625 28.875 C19.61120928 24.77758145 22.02261274 22.29252183 26 20 C32.78217831 17.92766774 40.07402585 17.21495512 47 19 C49.75 20.5 49.75 20.5 52 22 C54.69254991 22.70670728 54.69254991 22.70670728 57 23 C57.33 25.31 57.66 27.62 58 30 C58.99 30.33 59.98 30.66 61 31 C61 27.37 61 23.74 61 20 C65.90492688 19.01901462 70.10447352 18.96131579 75.0625 19.0625 C77.84700564 19.0032552 80.28786721 18.59122618 83 18 C85.125 18.125 85.125 18.125 87 19 C89.18290119 21.72862649 89.947158 23.66973751 90.5 27.125 C90 30 90 30 87.75 31.9375 C84.85369738 33.05652601 83.81822057 33.14816394 81 32 C81 32.66 81 33.32 81 34 C80.50886719 34.45189697 80.01773437 34.90379395 79.51171875 35.36938477 C77.83450057 36.87213206 77.83450057 36.87213206 77.70703125 38.92944336 C77.74183594 39.64237549 77.77664063 40.35530762 77.8125 41.08984375 C77.83570313 41.87423828 77.85890625 42.65863281 77.8828125 43.46679688 C77.96075264 45.11003482 78.03887676 46.75326405 78.1171875 48.39648438 C78.29589499 54.44771872 78.29589499 54.44771872 76.625 57.56640625 C75 59 75 59 73 59 C73 59.66 73 60.32 73 61 C70.29120665 62.35439668 67.99066732 62.06501451 65 62 C65 61.34 65 60.68 65 60 C64.01 59.67 63.02 59.34 62 59 C61.87625 58.360625 61.7525 57.72125 61.625 57.0625 C61.41875 56.381875 61.2125 55.70125 61 55 C58.50965614 53.70339566 58.50965614 53.70339566 56 53 C55.071875 54.1446875 55.071875 54.1446875 54.125 55.3125 C49.67031513 59.76718487 43.4807603 60.69534523 37.4375 61.4375 C30.02147225 60.49364192 22.82645222 56.81967711 18 51 C18 50.01 18 49.02 18 48 C17.34 47.67 16.68 47.34 16 47 C16 44.36 16 41.72 16 39 C15.01 39 14.02 39 13 39 C13.144375 40.27875 13.28875 41.5575 13.4375 42.875 C13.51871094 43.59429687 13.59992188 44.31359375 13.68359375 45.0546875 C13.91292961 47.07404316 13.91292961 47.07404316 15 49 C14.765625 50.83984375 14.765625 50.83984375 14.25 52.9375 C14.01023437 53.97197266 14.01023437 53.97197266 13.765625 55.02734375 C12.84467535 57.40019871 12.07052521 58.50848072 10 60 C7.51953125 60.29296875 7.51953125 60.29296875 4.8125 60.1875 C3.91144531 60.16042969 3.01039063 60.13335937 2.08203125 60.10546875 C1.39496094 60.07066406 0.70789063 60.03585938 0 60 C-1.59641649 55.07541417 -2.24020659 50.98406799 -2.1953125 45.75390625 C-2.1924826 45.09792953 -2.18965271 44.44195282 -2.18673706 43.76609802 C-2.17565984 41.69803591 -2.15058063 39.63042827 -2.125 37.5625 C-2.11495402 36.14909485 -2.10583102 34.73568283 -2.09765625 33.32226562 C-2.07576184 29.88136606 -2.04132051 26.44072748 -2 23 C-2.66 23 -3.32 23 -4 23 C-4.13277344 23.71027344 -4.26554688 24.42054687 -4.40234375 25.15234375 C-4.57894531 26.07144531 -4.75554687 26.99054687 -4.9375 27.9375 C-5.11152344 28.85402344 -5.28554688 29.77054688 -5.46484375 30.71484375 C-6 33 -6 33 -7 34 C-7.226875 35.175625 -7.45375 36.35125 -7.6875 37.5625 C-8.70375122 42.38578463 -10.32936758 46.8982699 -12.0625 51.5 C-12.46698364 52.57809937 -12.46698364 52.57809937 -12.87963867 53.67797852 C-14.86253436 58.86253436 -14.86253436 58.86253436 -16 60 C-17.7872057 60.15135944 -19.58161876 60.22175778 -21.375 60.25 C-22.35210937 60.27578125 -23.32921875 60.3015625 -24.3359375 60.328125 C-27 60 -27 60 -28.77734375 58.68359375 C-30.50102787 56.31008622 -31.1917155 53.79790789 -32 51 C-32.61875 51.8353125 -32.61875 51.8353125 -33.25 52.6875 C-38.65217391 59.82608696 -38.65217391 59.82608696 -41 61 C-44.95920798 61.25820922 -47.66635047 61.21348963 -51 59 C-52.23046875 56.79296875 -52.23046875 56.79296875 -53.1875 54.1875 C-53.51105469 53.33542969 -53.83460938 52.48335937 -54.16796875 51.60546875 C-54.97556077 49.07653036 -55.49478102 46.6035075 -56 44 C-56.7561344 41.42209101 -57.56565339 38.86507211 -58.37890625 36.3046875 C-59 34 -59 34 -59 31 C-59.99 31 -60.98 31 -62 31 C-61.87625 32.299375 -61.7525 33.59875 -61.625 34.9375 C-61.52058594 36.03384766 -61.52058594 36.03384766 -61.4140625 37.15234375 C-61.20910156 38.06693359 -61.20910156 38.06693359 -61 39 C-60.34 39.33 -59.68 39.66 -59 40 C-61.12041636 48.49561556 -63.45628545 54.2021385 -71 59 C-77.32197297 62.23123063 -85.08167566 61.8754973 -91.75 59.875 C-97.53028572 56.54021978 -101.74765445 53.77156415 -104 47.25 C-105.3116108 42.01945513 -104.93012459 37.26697055 -104 32 C-109.3086849 32.58174845 -109.3086849 32.58174845 -114 35 C-115.74791308 39.31289796 -115.34432855 44.45823042 -115.51757812 49.06835938 C-115.7168341 53.07979563 -116.05708895 56.44686815 -118 60 C-121.34579986 61.71007548 -123.09808498 62.24597682 -126.75 61.25 C-129 60 -129 60 -131 58 C-132.24125476 51.58864935 -132.08725412 45.4027187 -131 39 C-131.66 39 -132.32 39 -133 39 C-132.979375 39.61746094 -132.95875 40.23492187 -132.9375 40.87109375 C-133.10510467 47.75336047 -135.05422862 51.29956796 -139.89453125 56.1484375 C-145.03046699 60.66501179 -149.09101283 61.33137782 -155.73046875 61.30078125 C-158 61 -158 61 -161 59 C-160.7525 59.7734375 -160.7525 59.7734375 -160.5 60.5625 C-159.24744988 66.66868183 -159.735466 71.62931503 -163 77 C-167.31634929 78.91837746 -170.47040272 79.37260524 -175 78 C-176.73460952 71.25707151 -177.29521989 65.11113091 -177.265625 58.1640625 C-177.26753845 57.16289398 -177.2694519 56.16172546 -177.27142334 55.13021851 C-177.27277579 53.03098293 -177.26914553 50.93173872 -177.26074219 48.83251953 C-177.24996121 45.61341816 -177.26070417 42.39486625 -177.2734375 39.17578125 C-177.27211706 37.1302071 -177.26955708 35.0846333 -177.265625 33.0390625 C-177.27169769 31.59534775 -177.27169769 31.59534775 -177.27789307 30.12246704 C-177.27158875 29.23078827 -177.26528442 28.3391095 -177.25878906 27.42041016 C-177.25719788 26.63703278 -177.25560669 25.8536554 -177.25396729 25.04653931 C-177 23 -177 23 -175 20 C-170.07473083 19.04950946 -165.36624245 18.95731629 -160.3671875 19.03515625 C-157.79524646 18.99695911 -155.30411668 18.73686976 -152.75 18.4375 C-149.26728695 18.04691536 -146.40715456 17.97785363 -143 19 C-143 19.66 -143 20.32 -143 21 C-142.05125 21.28875 -141.1025 21.5775 -140.125 21.875 C-137 23 -137 23 -135 25 C-134.375 27.625 -134.375 27.625 -134 30 C-133.01 30.33 -132.02 30.66 -131 31 C-131.14308594 29.96939453 -131.14308594 29.96939453 -131.2890625 28.91796875 C-131.39992187 28.01691406 -131.51078125 27.11585937 -131.625 26.1875 C-131.74101562 25.29417969 -131.85703125 24.40085937 -131.9765625 23.48046875 C-132 21 -132 21 -130 18 C-129.195625 18.165 -128.39125 18.33 -127.5625 18.5 C-122.76604214 19.17318707 -117.65554735 19.70381988 -112.921875 18.44921875 C-109.84424931 17.72985502 -107.81112968 18.71665819 -105 20 C-103.1621112 22.58975241 -103 23.78481903 -103 27 C-101.68 26.67 -100.36 26.34 -99 26 C-99 25.34 -99 24.68 -99 24 C-97.390625 22.74609375 -97.390625 22.74609375 -95.25 21.4375 C-94.20585937 20.78587891 -94.20585937 20.78587891 -93.140625 20.12109375 C-88.07065842 17.46583753 -82.26172829 17.06726016 -76.7734375 18.63671875 C-74.11687552 19.62689185 -71.5360558 20.7319721 -69 22 C-69 22.66 -69 23.32 -69 24 C-68.360625 24.309375 -67.72125 24.61875 -67.0625 24.9375 C-65 26 -65 26 -64 27 C-63.34 24.69 -62.68 22.38 -62 20 C-52.94684385 18.55149502 -52.94684385 18.55149502 -49 19 C-45.18885671 22.13058199 -44.83959618 27.37728223 -44 32 C-43.74605469 31.15695313 -43.49210938 30.31390625 -43.23046875 29.4453125 C-42.71419922 27.80175781 -42.71419922 27.80175781 -42.1875 26.125 C-41.85105469 25.03445312 -41.51460937 23.94390625 -41.16796875 22.8203125 C-40 20 -40 20 -37 18 C-31.95351925 17.56117559 -28.45872899 18.47389235 -24.1875 21.125 C-22.20892975 24.24905829 -22.82135954 27.36764407 -23 31 C-22.01 30.505 -22.01 30.505 -21 30 C-20.43865672 27.72344116 -20.10753632 25.44675666 -19.7578125 23.12890625 C-19 21 -19 21 -17.3203125 19.69140625 C-14.28822877 18.78790655 -11.88731101 19.03398793 -8.75 19.375 C-7.67234375 19.48585938 -6.5946875 19.59671875 -5.484375 19.7109375 C-4.66453125 19.80632813 -3.8446875 19.90171875 -3 20 C-2.93941406 19.38253906 -2.87882813 18.76507812 -2.81640625 18.12890625 C-2.64131882 16.3591764 -2.46410693 14.58965588 -2.28515625 12.8203125 C-2.10141234 11.00300973 -1.92143298 9.18532043 -1.74609375 7.3671875 C-1.11258945 1.11258945 -1.11258945 1.11258945 0 0 Z M36 31 C34.1645201 32.33378575 34.1645201 32.33378575 33 34 C33.33 34.66 33.66 35.32 34 36 C35.98 36 37.96 36 40 36 C40.33 34.68 40.66 33.36 41 32 C38.65466049 31.23043864 38.65466049 31.23043864 36 31 Z M-159.375 35.625 C-161.20486352 39.42548577 -161.13807168 41.01674911 -160 45 C-155.95587035 46.7117247 -155.95587035 46.7117247 -151.6875 46.5 C-149.75950041 45.03446342 -149.75950041 45.03446342 -149.0625 42.25 C-148.98797255 38.3745726 -150.03904939 36.29439703 -152 33 C-155.8705776 32.35490373 -156.67354078 32.63917665 -159.375 35.625 Z M-88 35 C-89.10546369 36.74992715 -89.10546369 36.74992715 -89 39 C-87.44412487 42.77890761 -87.44412487 42.77890761 -85 46 C-82.58462162 46.41717279 -82.58462162 46.41717279 -80 46 C-77.6407424 43.6407424 -76.31296017 41.33824177 -76 38 C-76.42459932 35.73403336 -76.42459932 35.73403336 -78 34 C-81.8916928 32.81557176 -84.68789534 32.4239186 -88 35 Z M59 39 C59 40.98 59 42.96 59 45 C58.34 45 57.68 45 57 45 C57 45.66 57 46.32 57 47 C58.32 47 59.64 47 61 47 C61 44.36 61 41.72 61 39 C60.34 39 59.68 39 59 39 Z M41 45 C41 45.66 41 46.32 41 47 C41.66 47 42.32 47 43 47 C43 46.34 43 45.68 43 45 C42.34 45 41.68 45 41 45 Z M35 47 C35.66 47.66 36.32 48.32 37 49 C39.10820797 48.6814823 39.10820797 48.6814823 41 48 C41 47.67 41 47.34 41 47 C39.02 47 37.04 47 35 47 Z M55 47 C55.66 47.66 56.32 48.32 57 49 C57 48.34 57 47.68 57 47 C56.34 47 55.68 47 55 47 Z " fill="#EFEFEF" transform="translate(282,4)"/>
<path d="M0 0 C1.1859375 0.00257813 2.371875 0.00515625 3.59375 0.0078125 C4.7796875 0.00523437 5.965625 0.00265625 7.1875 0 C10.09375 0.1328125 10.09375 0.1328125 11.09375 1.1328125 C11.18006874 2.47548663 11.20081473 3.82255572 11.19140625 5.16796875 C11.18818359 5.97685547 11.18496094 6.78574219 11.18164062 7.61914062 C11.17326172 8.46927734 11.16488281 9.31941406 11.15625 10.1953125 C11.15173828 11.04931641 11.14722656 11.90332031 11.14257812 12.78320312 C11.13075373 14.89976913 11.11281769 17.01629935 11.09375 19.1328125 C12.16367187 18.79894531 13.23359375 18.46507813 14.3359375 18.12109375 C19.8250171 16.67750005 23.79772207 17.05807602 29.03125 19.5078125 C31.09375 21.1328125 31.09375 21.1328125 32.09375 24.1328125 C32.73570313 24.41253906 33.37765625 24.69226563 34.0390625 24.98046875 C36.09375 26.1328125 36.09375 26.1328125 37.2109375 28.56640625 C39.0381749 35.80942462 39.85953579 42.03323637 37.09375 49.1328125 C33.87014993 54.22981366 29.91245962 58.23282568 24.09375 60.1328125 C20.11592787 60.38537264 16.76888575 60.23667954 12.84375 59.6328125 C8.38327097 59.03808196 4.06305503 59.10612654 -0.4296875 59.1953125 C-2.90625 59.1328125 -2.90625 59.1328125 -3.90625 58.1328125 C-4.00518778 56.35835241 -4.03424092 54.57994999 -4.03564453 52.80273438 C-4.03879669 51.66485474 -4.04194885 50.5269751 -4.04519653 49.35461426 C-4.0431723 48.11610718 -4.04114807 46.8776001 -4.0390625 45.6015625 C-4.04001923 44.34017456 -4.04097595 43.07878662 -4.04196167 41.7791748 C-4.04264375 39.10584112 -4.04128529 36.43259813 -4.03662109 33.75927734 C-4.03092381 30.32574559 -4.03420301 26.892292 -4.04019356 23.45876312 C-4.04466762 20.19386007 -4.04153883 16.92896657 -4.0390625 13.6640625 C-4.04108673 12.42555542 -4.04311096 11.18704834 -4.04519653 9.91101074 C-4.04204437 8.7731311 -4.03889221 7.63525146 -4.03564453 6.46289062 C-4.03484894 5.45552856 -4.03405334 4.4481665 -4.03323364 3.41027832 C-3.84163727 -0.02602397 -3.49543239 0.1597375 0 0 Z M14.40625 31.5703125 C11.78346121 33.04838511 11.78346121 33.04838511 10.59375 36.4453125 C9.79861065 40.06512844 9.79861065 40.06512844 11.21875 43.0078125 C12.90845964 45.16334511 12.90845964 45.16334511 14.90625 46.1328125 C18.29964004 46.1328125 20.30111684 44.99456794 23.09375 43.1328125 C24.34799888 40.1539714 24.19737895 38.57841697 23.46875 35.4453125 C22.24263768 32.97947013 22.24263768 32.97947013 19.78125 31.6953125 C17.10123894 30.96631417 17.10123894 30.96631417 14.40625 31.5703125 Z " fill="#E31122" transform="translate(17.90625,4.8671875)"/>
<path d="M0 0 C4.62 0 9.24 0 14 0 C14 2.31 14 4.62 14 7 C16.64 7 19.28 7 22 7 C23.06671952 10.20015856 22.94845472 11.88544294 22.5625 15.1875 C22.46066406 16.08855469 22.35882813 16.98960938 22.25390625 17.91796875 C22.17011719 18.60503906 22.08632812 19.29210937 22 20 C19.36 20 16.72 20 14 20 C13.63713521 27.80002541 13.63713521 27.80002541 16.3671875 34.71875 C18.16086468 35.915451 18.16086468 35.915451 21 37 C22 38 22 38 22.25 41.375 C22 45 22 45 21 46.9375 C17.74530025 48.66655924 14.54963378 48.47632953 11 48 C5.7473369 46.33665668 3.02891743 44.58187933 0 40 C-0.609375 36.87890625 -0.609375 36.87890625 -0.75 33.5625 C-0.80671875 32.47066406 -0.8634375 31.37882812 -0.921875 30.25390625 C-0.99597604 27.16759792 -1.01862474 24.08705124 -1 21 C-2.65 20.67 -4.3 20.34 -6 20 C-6 15.71 -6 11.42 -6 7 C-4.35 7 -2.7 7 -1 7 C-0.67 4.69 -0.34 2.38 0 0 Z " fill="#E50C1F" transform="translate(81,16)"/>
<path d="M0 0 C2.252239 2.71821949 2.94244353 4.64027207 3.5 8.125 C3 11 3 11 0.75 12.9375 C-2.14630262 14.05652601 -3.18177943 14.14816394 -6 13 C-6 13.66 -6 14.32 -6 15 C-6.49113281 15.45189697 -6.98226562 15.90379395 -7.48828125 16.36938477 C-9.16549943 17.87213206 -9.16549943 17.87213206 -9.29296875 19.92944336 C-9.24076172 20.99884155 -9.24076172 20.99884155 -9.1875 22.08984375 C-9.16429687 22.87423828 -9.14109375 23.65863281 -9.1171875 24.46679688 C-9.03924736 26.11003482 -8.96112324 27.75326405 -8.8828125 29.39648438 C-8.70410501 35.44771872 -8.70410501 35.44771872 -10.375 38.56640625 C-12 40 -12 40 -14 40 C-14 40.66 -14 41.32 -14 42 C-16.70879335 43.35439668 -19.00933268 43.06501451 -22 43 C-22 42.34 -22 41.68 -22 41 C-23.485 40.505 -23.485 40.505 -25 40 C-25.12375 39.360625 -25.2475 38.72125 -25.375 38.0625 C-25.58125 37.381875 -25.7875 36.70125 -26 36 C-26.825 35.67 -27.65 35.34 -28.5 35 C-29.325 34.67 -30.15 34.34 -31 34 C-31.33 32.68 -31.66 31.36 -32 30 C-37.94 29.01 -37.94 29.01 -44 28 C-44 27.34 -44 26.68 -44 26 C-39.38 26 -34.76 26 -30 26 C-30 26.66 -30 27.32 -30 28 C-28.68 28 -27.36 28 -26 28 C-26 25.36 -26 22.72 -26 20 C-26.66 20 -27.32 20 -28 20 C-28.66 17.03 -29.32 14.06 -30 11 C-28.68 11.33 -27.36 11.66 -26 12 C-26 8.37 -26 4.74 -26 1 C-21.9729055 0.1945811 -18.96436892 -0.08145373 -14.9375 0 C-9.8263353 0.10312564 -4.84005108 -1.73745423 0 0 Z M-32 28 C-31.34 28.66 -30.68 29.32 -30 30 C-30 29.34 -30 28.68 -30 28 C-30.66 28 -31.32 28 -32 28 Z " fill="#F4F4F4" transform="translate(369,23)"/>
<path d="M0 0 C2.8125 1.3125 2.8125 1.3125 5 3 C6.28317892 6.84953676 6.06643637 9.94738135 6 14 C0.25 17 0.25 17 -2 17 C-2 17.66 -2 18.32 -2 19 C-0.02 19 1.96 19 4 19 C5.24811451 22.74434353 5.14307934 26.2333017 5.1328125 30.1328125 C5.13424759 31.32147415 5.13424759 31.32147415 5.13571167 32.53414917 C5.13639159 34.20684895 5.13455042 35.87955139 5.13037109 37.55224609 C5.12500599 40.12212998 5.13032968 42.69184021 5.13671875 45.26171875 C5.13605821 46.88541705 5.13477756 48.50911525 5.1328125 50.1328125 C5.13483673 50.90569611 5.13686096 51.67857971 5.13894653 52.47488403 C5.11496066 57.88503934 5.11496066 57.88503934 4 59 C1.81360547 59.07258946 -0.37500389 59.08373783 -2.5625 59.0625 C-4.35880859 59.04896484 -4.35880859 59.04896484 -6.19140625 59.03515625 C-7.11824219 59.02355469 -8.04507813 59.01195312 -9 59 C-10.08794502 54.61433929 -10.12897314 50.34417235 -10.09765625 45.85546875 C-10.09553383 44.7007885 -10.09553383 44.7007885 -10.09336853 43.52278137 C-10.08779606 41.07764712 -10.07524871 38.63260632 -10.0625 36.1875 C-10.05748144 34.52408987 -10.05291915 32.8606783 -10.04882812 31.19726562 C-10.03783566 27.13147472 -10.0205901 23.06575317 -10 19 C-8.68 18.34 -7.36 17.68 -6 17 C-6.825 16.29875 -7.65 15.5975 -8.5 14.875 C-11 12 -11 12 -11.5 9 C-10.94506497 5.67038979 -10.00503147 3.69908083 -8 1 C-5.17998673 -0.41000664 -3.12992745 -0.24548451 0 0 Z " fill="#E01526" transform="translate(69,5)"/>
<path d="M0 0 C2.8125 1.3125 2.8125 1.3125 5 3 C6.28317892 6.84953676 6.06643637 9.94738135 6 14 C0.25 17 0.25 17 -2 17 C-2 17.66 -2 18.32 -2 19 C-4.31 19 -6.62 19 -9 19 C-8.01 18.34 -7.02 17.68 -6 17 C-6.825 16.29875 -7.65 15.5975 -8.5 14.875 C-11 12 -11 12 -11.5 9 C-10.94506497 5.67038979 -10.00503147 3.69908083 -8 1 C-5.17998673 -0.41000664 -3.12992745 -0.24548451 0 0 Z " fill="#DA1E2E" transform="translate(69,5)"/>
<path d="M0 0 C2.84152117 1.49179861 4.00433919 2.47861635 5.5 5.3125 C6.02755517 8.93002119 5.95932313 10.61432885 3.9375 13.6875 C0.56489221 15.93590519 -1.52512383 15.88033945 -5.5 15.3125 C-7.9375 13.8125 -7.9375 13.8125 -9.5 11.3125 C-10.07853498 8.34825377 -9.89353376 6.41157833 -9.5 3.3125 C-6.79056925 0.41621196 -3.95643067 -1.08801843 0 0 Z " fill="#DB2231" transform="translate(376.5,49.6875)"/>
<path d="M0 0 C0.33 0 0.66 0 1 0 C1 8.58 1 17.16 1 26 C-0.98 25.34 -2.96 24.68 -5 24 C-5.33 22.68 -5.66 21.36 -6 20 C-11.94 19.01 -11.94 19.01 -18 18 C-18 17.34 -18 16.68 -18 16 C-13.38 16 -8.76 16 -4 16 C-4 16.66 -4 17.32 -4 18 C-2.68 18 -1.36 18 0 18 C0 15.36 0 12.72 0 10 C-0.66 10 -1.32 10 -2 10 C-2.66 7.03 -3.32 4.06 -4 1 C-2.68 1.33 -1.36 1.66 0 2 C0 1.34 0 0.68 0 0 Z M-6 18 C-5.34 18.66 -4.68 19.32 -4 20 C-4 19.34 -4 18.68 -4 18 C-4.66 18 -5.32 18 -6 18 Z " fill="#B6B6B6" transform="translate(343,33)"/>
<path d="M0 0 C2.252239 2.71821949 2.94244353 4.64027207 3.5 8.125 C3 11 3 11 0.75 13 C-2 14 -2 14 -4.3125 13.1875 C-4.869375 12.795625 -5.42625 12.40375 -6 12 C-4.35 11.67 -2.7 11.34 -1 11 C-1 7.7 -1 4.4 -1 1 C-6.65305558 2.04186785 -6.65305558 2.04186785 -12 4 C-12 3.34 -12 2.68 -12 2 C-15.3 2 -18.6 2 -22 2 C-21.67 1.34 -21.34 0.68 -21 0 C-20.18015625 0.01160156 -19.3603125 0.02320312 -18.515625 0.03515625 C-17.43796875 0.04417969 -16.3603125 0.05320312 -15.25 0.0625 C-14.18265625 0.07410156 -13.1153125 0.08570312 -12.015625 0.09765625 C-0.74471697 -0.2673343 -0.74471697 -0.2673343 0 0 Z " fill="#BCBCBC" transform="translate(369,23)"/>
<path d="M0 0 C0.33 0 0.66 0 1 0 C1 1.98 1 3.96 1 6 C-0.32 6 -1.64 6 -3 6 C-3 9.3 -3 12.6 -3 16 C-1.35 16.33 0.3 16.66 2 17 C2 23.6 2 30.2 2 37 C1.67 37 1.34 37 1 37 C0.83038614 34.95857606 0.66444404 32.91684689 0.5 30.875 C0.36078125 29.16957031 0.36078125 29.16957031 0.21875 27.4296875 C0.0174779 24.27402851 -0.03842904 21.16078835 0 18 C-1.65 17.67 -3.3 17.34 -5 17 C-5 12.71 -5 8.42 -5 4 C-3.35 4 -1.7 4 0 4 C0 2.68 0 1.36 0 0 Z " fill="#BE5866" transform="translate(80,19)"/>
<path d="M0 0 C0 0.66 0 1.32 0 2 C0.99 2.33 1.98 2.66 3 3 C2.67 4.65 2.34 6.3 2 8 C-1.96 8 -5.92 8 -10 8 C-10.33 6.35 -10.66 4.7 -11 3 C-7.48550811 -0.37391222 -4.73940561 -0.27342725 0 0 Z M-6 1 C-7.8354799 2.33378575 -7.8354799 2.33378575 -9 4 C-8.67 4.66 -8.34 5.32 -8 6 C-6.02 6 -4.04 6 -2 6 C-1.67 4.68 -1.34 3.36 -1 2 C-3.34533951 1.23043864 -3.34533951 1.23043864 -6 1 Z " fill="#D1D1D1" transform="translate(324,34)"/>
<path d="M0 0 C3 4 3 4 3 7 C4.32 6.67 5.64 6.34 7 6 C7 5.34 7 4.68 7 4 C9 2.375 9 2.375 11 1 C11.66 1.33 12.32 1.66 13 2 C11.88121617 3.17262904 10.75476949 4.33795138 9.625 5.5 C8.99851563 6.1496875 8.37203125 6.799375 7.7265625 7.46875 C6 9 6 9 4 9 C3.67 12.3 3.34 15.6 3 19 C2.67 19 2.34 19 2 19 C2 16.69 2 14.38 2 12 C1.34 12 0.68 12 0 12 C0 8.04 0 4.08 0 0 Z " fill="#BBBBBB" transform="translate(176,24)"/>
<path d="M0 0 C0.66 0 1.32 0 2 0 C2 0.66 2 1.32 2 2 C1.50886719 2.45117188 1.01773437 2.90234375 0.51171875 3.3671875 C-1.16751962 4.87386668 -1.16751962 4.87386668 -1.29296875 6.9453125 C-1.24076172 8.02425781 -1.24076172 8.02425781 -1.1875 9.125 C-1.16429687 9.91390625 -1.14109375 10.7028125 -1.1171875 11.515625 C-1.07851563 12.33546875 -1.03984375 13.1553125 -1 14 C-0.92337758 15.62439535 -0.86030878 17.24950144 -0.8125 18.875 C-0.77769531 19.59429687 -0.74289062 20.31359375 -0.70703125 21.0546875 C-1.08421907 23.55921464 -2.09289638 24.40824423 -4 26 C-4.05410136 22.93726169 -4.09372225 19.87548548 -4.125 16.8125 C-4.14175781 15.94818359 -4.15851563 15.08386719 -4.17578125 14.19335938 C-4.2101253 9.71146113 -4.2345161 6.02369157 -2 2 C-1.34 1.34 -0.68 0.68 0 0 Z " fill="#C0C0C0" transform="translate(361,36)"/>
<path d="M0 0 C5.4141238 -0.48125545 5.4141238 -0.48125545 7.75 1.4375 C9.57783839 5.1845687 10.21742294 8.90651999 11 13 C11.99 10.03 12.98 7.06 14 4 C15.07165569 7.21496708 14.94376088 8.39796074 14.25 11.625 C14.01023438 12.81996094 14.01023438 12.81996094 13.765625 14.0390625 C13.51296875 14.68617187 13.2603125 15.33328125 13 16 C12.01 16.33 11.02 16.66 10 17 C9.78085938 16.01257813 9.56171875 15.02515625 9.3359375 14.0078125 C9.01882812 12.72648437 8.70171875 11.44515625 8.375 10.125 C7.92253906 8.21074219 7.92253906 8.21074219 7.4609375 6.2578125 C6.30454752 2.72142019 6.30454752 2.72142019 2.8515625 1.5546875 C1.91054687 1.37164063 0.96953125 1.18859375 0 1 C0 0.67 0 0.34 0 0 Z " fill="#CFCFCF" transform="translate(227,23)"/>
<path d="M0 0 C5.50771821 0.3479822 9.32269046 0.88179364 14 4 C16.69254991 4.70670728 16.69254991 4.70670728 19 5 C19.33 6.98 19.66 8.96 20 11 C19.01 11.495 19.01 11.495 18 12 C17.29875 11.071875 16.5975 10.14375 15.875 9.1875 C11.18822309 3.62113191 5.95061283 2.59919076 -1 2 C-0.67 1.34 -0.34 0.68 0 0 Z " fill="#C7C7C7" transform="translate(320,22)"/>
<path d="M0 0 C4.62 0 9.24 0 14 0 C14 3.11257569 13.82638376 5.10765685 13 8 C12.67 6.68 12.34 5.36 12 4 C6.06 3.01 6.06 3.01 0 2 C0 1.34 0 0.68 0 0 Z " fill="#ABABAB" transform="translate(325,49)"/>
<path d="M0 0 C0.33 0 0.66 0 1 0 C1 3.96 1 7.92 1 12 C0.67 10.68 0.34 9.36 0 8 C-0.66 8 -1.32 8 -2 8 C-2.12117188 8.71027344 -2.24234375 9.42054687 -2.3671875 10.15234375 C-2.53476562 11.07144531 -2.70234375 11.99054687 -2.875 12.9375 C-3.03742188 13.85402344 -3.19984375 14.77054688 -3.3671875 15.71484375 C-3.68042969 16.84599609 -3.68042969 16.84599609 -4 18 C-4.66 18.33 -5.32 18.66 -6 19 C-5.34 14.71 -4.68 10.42 -4 6 C-4.66 5.67 -5.32 5.34 -6 5 C-4.35 5 -2.7 5 -1 5 C-0.67 3.35 -0.34 1.7 0 0 Z " fill="#C3C3C3" transform="translate(280,19)"/>
<path d="M0 0 C0.103125 0.53625 0.20625 1.0725 0.3125 1.625 C1.18092697 4.62502044 2.55620296 7.2379535 4 10 C5.65 10 7.3 10 9 10 C10.32 7.69 11.64 5.38 13 3 C14 5 14 5 13.1875 7.5 C12 10 12 10 10 12 C5.66356399 12.31537716 3.67346771 12.44897847 0 10 C-0.546875 7.87109375 -0.546875 7.87109375 -0.75 5.4375 C-0.86601562 4.22900391 -0.86601562 4.22900391 -0.984375 2.99609375 C-0.98953125 2.33738281 -0.9946875 1.67867187 -1 1 C-0.67 0.67 -0.34 0.34 0 0 Z " fill="#B6B6B6" transform="translate(193,39)"/>
<path d="M0 0 C0 0.33 0 0.66 0 1 C-1.98 1 -3.96 1 -6 1 C-5.34 4.3 -4.68 7.6 -4 11 C-4.99 11 -5.98 11 -7 11 C-7.33 11.66 -7.66 12.32 -8 13 C-9.11017502 9.66947495 -8.87254667 8.25587782 -8.1875 4.875 C-8.01605469 3.98554688 -7.84460938 3.09609375 -7.66796875 2.1796875 C-7.44753906 1.46039062 -7.22710937 0.74109375 -7 0 C-4.3333581 -1.33332095 -2.83319697 -0.67102033 0 0 Z " fill="#C7C7C7" transform="translate(227,24)"/>
<path d="M0 0 C0.99 0 1.98 0 3 0 C3.66 2.97 4.32 5.94 5 9 C4.01 8.67 3.02 8.34 2 8 C1.01 9.32 0.02 10.64 -1 12 C-0.67 8.04 -0.34 4.08 0 0 Z " fill="#C5C5C5" transform="translate(247,47)"/>
<path d="M0 0 C1.65 0 3.3 0 5 0 C5 2.64 5 5.28 5 8 C2.5 6.8125 2.5 6.8125 0 5 C-0.3125 2.3125 -0.3125 2.3125 0 0 Z " fill="#CCCCCC" transform="translate(339,51)"/>
<path d="M0 0 C1 2 1 2 0.44140625 4.1640625 C0.15136719 4.97617187 -0.13867188 5.78828125 -0.4375 6.625 C-0.72496094 7.44226562 -1.01242187 8.25953125 -1.30859375 9.1015625 C-1.53675781 9.72804688 -1.76492188 10.35453125 -2 11 C-2.99 11 -3.98 11 -5 11 C-5 8.36 -5 5.72 -5 3 C-3.68 3 -2.36 3 -1 3 C-0.67 2.01 -0.34 1.02 0 0 Z " fill="#CBCBCB" transform="translate(300,32)"/>
<path d="M0 0 C0.99 0.33 1.98 0.66 3 1 C3 3.64 3 6.28 3 9 C5.33075929 8.04134491 5.33075929 8.04134491 7 5 C6.33333333 8.33333333 5.66666667 11.66666667 5 15 C4.34 14.67 3.68 14.34 3 14 C2.37147066 11.66752185 1.84464754 9.30708533 1.375 6.9375 C1.11460937 5.64714844 0.85421875 4.35679688 0.5859375 3.02734375 C0.39257812 2.02832031 0.19921875 1.02929688 0 0 Z " fill="#C6C6C6" transform="translate(256,26)"/>
<path d="M0 0 C1.32 0.33 2.64 0.66 4 1 C4 3.64 4 6.28 4 9 C3.34 9 2.68 9 2 9 C2 10.65 2 12.3 2 14 C1.67 14 1.34 14 1 14 C0.67 9.38 0.34 4.76 0 0 Z " fill="#C1C1C1" transform="translate(147,34)"/>
<path d="M0 0 C3.3 0 6.6 0 10 0 C10 0.66 10 1.32 10 2 C8.68 2.33 7.36 2.66 6 3 C7.32 3 8.64 3 10 3 C10 3.66 10 4.32 10 5 C6.6875 4.75 6.6875 4.75 3 4 C2.01 2.68 1.02 1.36 0 0 Z " fill="#B1B1B1" transform="translate(313,49)"/>
<path d="M0 0 C0.99 1.485 0.99 1.485 2 3 C4.19454681 3.57993699 4.19454681 3.57993699 6.625 3.6875 C7.44226563 3.75324219 8.25953125 3.81898437 9.1015625 3.88671875 C9.72804688 3.92410156 10.35453125 3.96148437 11 4 C11 4.66 11 5.32 11 6 C8.29120665 7.35439668 5.99066732 7.06501451 3 7 C3 6.34 3 5.68 3 5 C2.01 4.67 1.02 4.34 0 4 C0 2.68 0 1.36 0 0 Z " fill="#CECECE" transform="translate(344,59)"/>
<path d="M0 0 C0.33 0 0.66 0 1 0 C1.22786458 2.01822917 1.45572917 4.03645833 1.68359375 6.0546875 C1.91292961 8.07404316 1.91292961 8.07404316 3 10 C2.66015625 11.9453125 2.66015625 11.9453125 2.0625 14.125 C1.86785156 14.84945312 1.67320312 15.57390625 1.47265625 16.3203125 C1.31667969 16.87460937 1.16070312 17.42890625 1 18 C0.67 18 0.34 18 0 18 C0 12.06 0 6.12 0 0 Z " fill="#CDCDCD" transform="translate(294,43)"/>
<path d="M0 0 C0.9075 0.103125 1.815 0.20625 2.75 0.3125 C2.75 0.6425 2.75 0.9725 2.75 1.3125 C1.80125 1.51875 0.8525 1.725 -0.125 1.9375 C-3.50869366 3.00893984 -3.50869366 3.00893984 -4.5625 6.25 C-4.9028125 7.7659375 -4.9028125 7.7659375 -5.25 9.3125 C-5.58 10.3025 -5.91 11.2925 -6.25 12.3125 C-7.20719944 8.2444024 -7.68670609 6.13350746 -5.6875 2.375 C-3.25 0.3125 -3.25 0.3125 0 0 Z " fill="#B0B0B0" transform="translate(127.25,35.6875)"/>
<path d="M0 0 C-2.82328089 2.82328089 -5.08541907 2.79396942 -9 3 C-10.72265625 1.51171875 -10.72265625 1.51171875 -12 0 C-10.37585622 -0.19477739 -8.75063577 -0.38059458 -7.125 -0.5625 C-6.22007812 -0.66691406 -5.31515625 -0.77132812 -4.3828125 -0.87890625 C-2 -1 -2 -1 0 0 Z " fill="#CCCCCC" transform="translate(165,63)"/>
<path d="M0 0 C1.07165569 3.21496708 0.94376088 4.39796074 0.25 7.625 C0.09015625 8.42164063 -0.0696875 9.21828125 -0.234375 10.0390625 C-0.48703125 10.68617187 -0.7396875 11.33328125 -1 12 C-1.99 12.33 -2.98 12.66 -4 13 C-4.33 11.35 -4.66 9.7 -5 8 C-4.01 8.495 -4.01 8.495 -3 9 C-2.01 6.03 -1.02 3.06 0 0 Z " fill="#ADADAD" transform="translate(241,27)"/>
<path d="M0 0 C4.875 1.875 4.875 1.875 6 3 C6.04063832 4.66617115 6.042721 6.33388095 6 8 C4.62437146 6.71034824 3.29233607 5.37310707 2 4 C2 3.34 2 2.68 2 2 C1.34 2 0.68 2 0 2 C0 1.34 0 0.68 0 0 Z " fill="#CACACA" transform="translate(141,26)"/>
<path d="M0 0 C4.455 0.99 4.455 0.99 9 2 C9 2.33 9 2.66 9 3 C5.7 3 2.4 3 -1 3 C-0.67 2.01 -0.34 1.02 0 0 Z " fill="#E2E2E2" transform="translate(314,46)"/>
<path d="M0 0 C0.99 0.495 0.99 0.495 2 1 C1.01 1.495 1.01 1.495 0 2 C0 1.34 0 0.68 0 0 Z " fill="#808080" transform="translate(75,19)"/>
</svg>
