<?xml version="1.0" encoding="UTF-8"?>
<svg id="Layer_2" data-name="Layer 2" xmlns="http://www.w3.org/2000/svg" viewBox="0 0 89.69 79.29">
  <defs>
    <style>
      .cls-1 {
        fill: #272725;
      }

      .cls-2 {
        fill: #cf2c28;
      }
    </style>
  </defs>
  <g id="Layer_1-2" data-name="Layer 1">
    <g>
      <path class="cls-2" d="m27.67,20.62c2.97-1.59,6.47-2.38,10.49-2.38,4.73,0,9.03,1.24,12.88,3.71,3.85,2.47,6.89,6.01,9.12,10.6,2.23,4.59,3.34,9.96,3.34,16.11s-1.11,11.54-3.34,16.17c-2.23,4.63-5.26,8.18-9.12,10.65-3.85,2.47-8.15,3.71-12.88,3.71-4.03,0-7.53-.8-10.49-2.39-2.97-1.59-5.27-3.8-6.89-6.62v8.27H0V0h20.78v27.24c1.62-2.83,3.92-5.03,6.89-6.62Zm11.61,18.97c-2.08-2.15-4.65-3.23-7.69-3.23s-5.6,1.1-7.69,3.29c-2.08,2.19-3.13,5.19-3.13,9.01s1.04,6.93,3.13,9.12c2.08,2.19,4.65,3.29,7.69,3.29s5.6-1.11,7.69-3.34c2.08-2.23,3.13-5.25,3.13-9.06s-1.04-6.91-3.13-9.06Z"/>
      <path class="cls-1" d="m71.11,76.27c-1.98-2.01-2.96-4.57-2.96-7.69s.99-5.69,2.96-7.74c1.97-2.05,4.59-3.07,7.85-3.07s5.78,1.02,7.76,3.07c1.97,2.05,2.96,4.63,2.96,7.74s-.99,5.58-2.96,7.63c-1.97,2.05-4.56,3.07-7.76,3.07s-5.88-1.01-7.85-3.02Z"/>
    </g>
  </g>
</svg>