<?xml version="1.0" encoding="UTF-8"?>
<svg id="Layer_2" data-name="Layer 2" xmlns="http://www.w3.org/2000/svg" viewBox="0 0 467.26 95.05">
  <defs>
    <style>
      .cls-1 {
        fill: #272725;
      }

      .cls-2 {
        fill: #cf2c28;
      }
    </style>
  </defs>
  <g id="Layer_1-2" data-name="Layer 1">
    <g>
      <path class="cls-2" d="m22.91,23.65c2.46-1.32,5.35-1.98,8.69-1.98,3.92,0,7.47,1.02,10.66,3.07,3.19,2.05,5.71,4.97,7.55,8.78,1.84,3.8,2.76,8.25,2.76,13.34s-.92,9.55-2.76,13.38c-1.84,3.83-4.36,6.77-7.55,8.82-3.19,2.05-6.74,3.07-10.66,3.07-3.34,0-6.23-.66-8.69-1.97s-4.36-3.14-5.71-5.49v6.85H0V6.58h17.2v22.56c1.35-2.34,3.25-4.17,5.71-5.49Zm9.61,15.71c-1.73-1.78-3.85-2.68-6.36-2.68s-4.64.91-6.36,2.72c-1.73,1.81-2.59,4.3-2.59,7.46s.86,5.74,2.59,7.55c1.73,1.81,3.85,2.72,6.36,2.72s4.64-.92,6.36-2.77c1.73-1.84,2.59-4.34,2.59-7.5s-.86-5.72-2.59-7.5Z"/>
      <path class="cls-2" d="m59.24,15.23c-1.63-1.67-2.45-3.76-2.45-6.28s.82-4.71,2.45-6.41c1.63-1.7,3.8-2.55,6.49-2.55s4.78.85,6.41,2.55c1.63,1.7,2.45,3.83,2.45,6.41s-.82,4.61-2.45,6.28c-1.63,1.67-3.77,2.5-6.41,2.5s-4.86-.83-6.49-2.5Z"/>
      <rect class="cls-2" x="57.05" y="22.29" width="17.2" height="49.24"/>
      <path class="cls-2" d="m110.5,56.87v14.66h-7.46c-12.58,0-18.87-6.23-18.87-18.69v-16.24h-6.06v-14.31h6.06v-11.94h17.29v11.94h8.95v14.31h-8.95v16.5c0,1.35.31,2.31.92,2.9.61.59,1.65.88,3.12.88h5Z"/>
      <path class="cls-1" d="m138.67,23.7c2.46-1.35,5.35-2.02,8.69-2.02,3.92,0,7.47,1.02,10.66,3.07,3.19,2.05,5.71,4.97,7.55,8.78,1.84,3.8,2.76,8.25,2.76,13.34s-.92,9.55-2.76,13.38c-1.84,3.83-4.36,6.77-7.55,8.82-3.19,2.05-6.74,3.07-10.66,3.07-3.34,0-6.22-.67-8.65-2.02-2.43-1.35-4.34-3.16-5.75-5.44v30.37h-17.2V22.29h17.2v6.85c1.35-2.28,3.25-4.1,5.71-5.44Zm9.61,15.67c-1.73-1.78-3.85-2.68-6.36-2.68s-4.64.91-6.36,2.72c-1.73,1.81-2.59,4.3-2.59,7.46s.86,5.74,2.59,7.55c1.73,1.81,3.85,2.72,6.36,2.72s4.64-.92,6.36-2.77c1.73-1.84,2.59-4.34,2.59-7.5s-.86-5.72-2.59-7.5Z"/>
      <path class="cls-1" d="m197.04,24.31c2.75-1.64,5.71-2.46,8.87-2.46v18.34h-4.83c-3.75,0-6.53.73-8.34,2.19-1.81,1.46-2.72,4.01-2.72,7.64v21.5h-17.2V22.29h17.2v8.69c1.93-2.81,4.27-5.03,7.02-6.67Z"/>
      <path class="cls-1" d="m219.11,69.07c-3.89-2.05-6.95-4.97-9.17-8.78-2.22-3.8-3.33-8.28-3.33-13.43s1.13-9.54,3.38-13.34c2.25-3.8,5.32-6.73,9.22-8.78,3.89-2.05,8.29-3.07,13.21-3.07s9.32,1.02,13.21,3.07c3.89,2.05,6.96,4.97,9.22,8.78,2.25,3.8,3.38,8.25,3.38,13.34s-1.13,9.55-3.38,13.38c-2.25,3.83-5.34,6.77-9.26,8.82-3.92,2.05-8.34,3.07-13.25,3.07s-9.32-1.02-13.21-3.07Zm19.22-14.53c1.61-1.78,2.41-4.34,2.41-7.68s-.8-5.88-2.41-7.64c-1.61-1.75-3.58-2.63-5.92-2.63s-4.3.88-5.88,2.63c-1.58,1.76-2.37,4.3-2.37,7.64s.76,5.97,2.28,7.72c1.52,1.76,3.48,2.63,5.88,2.63s4.4-.89,6.01-2.68Z"/>
      <path class="cls-1" d="m335.36,22.29l-12.55,49.24h-19.31l-6.85-29.84-7.11,29.84h-19.22l-12.46-49.24h17.11l5.53,32.65,7.29-32.65h18.43l7.55,32.74,5.44-32.74h16.15Z"/>
      <path class="cls-1" d="m354.84,6.58v64.95h-17.2V6.58h17.2Z"/>
      <path class="cls-1" d="m408.82,50.38h-32.56c.17,2.69.92,4.7,2.24,6.01s3,1.97,5.05,1.97c2.87,0,4.92-1.29,6.14-3.86h18.34c-.76,3.39-2.24,6.42-4.43,9.08-2.19,2.66-4.96,4.75-8.29,6.28-3.34,1.52-7.02,2.28-11.06,2.28-4.86,0-9.17-1.02-12.95-3.07-3.77-2.05-6.73-4.97-8.87-8.78-2.14-3.8-3.2-8.28-3.2-13.43s1.05-9.61,3.16-13.38c2.11-3.77,5.05-6.68,8.82-8.73,3.77-2.05,8.12-3.07,13.03-3.07s9.16,1,12.9,2.98c3.74,1.99,6.67,4.84,8.78,8.56s3.16,8.09,3.16,13.12c0,1.35-.09,2.69-.26,4.04Zm-17.29-8.34c0-2.11-.7-3.76-2.11-4.96-1.4-1.2-3.16-1.8-5.27-1.8s-3.83.57-5.18,1.71c-1.35,1.14-2.22,2.82-2.63,5.05h15.18Z"/>
      <path class="cls-1" d="m437.7,24.31c2.75-1.64,5.71-2.46,8.87-2.46v18.34h-4.83c-3.75,0-6.53.73-8.34,2.19-1.81,1.46-2.72,4.01-2.72,7.64v21.5h-17.2V22.29h17.2v8.69c1.93-2.81,4.27-5.03,7.02-6.67Z"/>
      <path class="cls-2" d="m451.91,69.73c-1.63-1.67-2.45-3.79-2.45-6.36s.82-4.71,2.45-6.41c1.63-1.7,3.79-2.55,6.49-2.55s4.78.85,6.41,2.55c1.63,1.7,2.45,3.83,2.45,6.41s-.82,4.62-2.45,6.32c-1.63,1.7-3.77,2.54-6.41,2.54s-4.86-.83-6.49-2.5Z"/>
    </g>
  </g>
</svg>