<?xml version="1.0" encoding="UTF-8"?>
<svg id="Layer_2" data-name="Layer 2" xmlns="http://www.w3.org/2000/svg" viewBox="0 0 314.84 314.84">
  <defs>
    <style>
      .cls-1 {
        fill: #cb2e28;
      }
    </style>
  </defs>
  <g id="Layer_1-2" data-name="Layer 1">
    <g>
      <path class="cls-1" d="m297.19,0H17.65C7.9,0,0,7.9,0,17.65v279.54c0,9.75,7.9,17.65,17.65,17.65h279.54c9.75,0,17.65-7.9,17.65-17.65V17.65c0-9.75-7.9-17.65-17.65-17.65Zm-60.92,224.97h-25.08v-115.13c-42.68,42.68-84.8,84.79-127.05,127.04h-2.38c-5.64-5.63-11.12-11.1-16.84-16.8v-1.9c41.92-41.92,84.1-84.09,126.48-126.47h-113.44v-27.25h158.32v160.5Z"/>
      <path d="m77.94,91.72h113.44c-42.38,42.37-84.56,84.55-126.48,126.47v1.9c5.71,5.7,11.2,11.17,16.84,16.8h2.38c42.25-42.25,84.37-84.36,127.05-127.04v115.13h25.08V64.47H77.94v27.25Z"/>
    </g>
  </g>
</svg>