<?xml version="1.0" encoding="UTF-8"?>
<svg id="Layer_2" data-name="Layer 2" xmlns="http://www.w3.org/2000/svg" viewBox="0 0 512.16 512.16">
  <defs>
    <style>
      .cls-1 {
        fill: #cb2e28;
      }
    </style>
  </defs>
  <g id="Layer_1-2" data-name="Layer 1">
    <g>
      <path class="cls-1" d="m462.24,512.16c-.55-.27-1.07-.73-1.64-.8-7.02-.83-13.24-3.68-18.92-7.73-4.22-3.01-7.76-6.8-11.4-10.46-11.95-12.01-23.93-23.98-35.92-35.95-19.07-19.05-38.15-38.09-57.22-57.14-2.02-2.02-4.01-4.07-6.06-6.06-1.31-1.27-1.76-1.25-3.31-.35-4.99,2.89-9.92,5.9-15.02,8.59-4.73,2.51-9.59,4.79-14.49,6.96-4.62,2.05-9.34,3.89-14.06,5.71-2.2.85-4.5,1.48-6.77,2.15-2.88.85-5.78,1.68-8.69,2.42-3.93,1-7.88,1.94-11.84,2.84-2.71.62-5.44,1.19-8.18,1.69-2.43.44-4.87.88-7.32,1.08-5.89.49-11.78.84-17.68,1.25-1.91.13-3.82.38-5.73.42-3.03.05-6.07,0-9.1-.09-2.24-.07-4.47-.24-6.7-.4-5.33-.37-10.69-.56-15.99-1.21-4.73-.57-9.41-1.61-14.09-2.53-3.98-.79-7.96-1.62-11.9-2.6-2.84-.71-5.61-1.68-8.41-2.54-3.54-1.09-7.11-2.12-10.62-3.32-2.76-.94-5.5-1.99-8.16-3.2-7.04-3.21-14.09-6.39-21-9.86-4.23-2.13-8.28-4.65-12.27-7.22-8.3-5.35-16.27-11.15-23.81-17.54-9.4-7.97-18.05-16.7-25.93-26.15-7.55-9.05-14.42-18.61-20.22-28.89-2.98-5.27-5.88-10.61-8.48-16.07-2.55-5.35-4.76-10.87-6.96-16.38-1.66-4.17-3.29-8.37-4.55-12.67-1.65-5.64-3-11.37-4.31-17.11-1.06-4.65-1.87-9.36-2.8-14.04-.02-.08-.04-.16-.05-.24-.4-3.96-.95-7.92-1.14-11.89-.16-3.29-.84-6.45-1.5-9.64,0-6.4,0-12.8,0-19.2.44-2.34,1.02-4.67,1.29-7.03.52-4.59.87-9.21,1.29-13.81.02-.24.08-.47.12-.71.56-2.97,1.11-5.93,1.67-8.9.48-2.51.82-5.05,1.48-7.5,1.44-5.44,2.97-10.86,4.58-16.25,1.32-4.38,2.62-8.78,4.29-13.03,2.17-5.52,4.51-10.98,7.1-16.31,4.03-8.29,8.6-16.29,13.69-23.99,6.02-9.11,12.66-17.73,20-25.83,10.84-11.94,22.79-22.62,36.06-31.78,5.44-3.76,11.08-7.25,16.79-10.59,4.56-2.67,9.32-5.03,14.08-7.34,4.1-2,8.27-3.9,12.52-5.55,5.03-1.95,10.16-3.64,15.28-5.34,2.47-.82,5.01-1.44,7.54-2.11,3.59-.94,7.18-1.88,10.8-2.73,2.08-.49,4.21-.79,6.31-1.18,2.97-.55,5.93-1.26,8.93-1.63,4.91-.6,9.85-.95,14.77-1.48,1.66-.18,3.29-.61,4.93-.92h21.12c.73.27,1.44.71,2.19.79,5.16.54,10.35.94,15.51,1.51,3.17.35,6.31.9,9.45,1.45,2.34.41,4.66.96,6.98,1.47,3.4.75,6.83,1.42,10.2,2.3,2.75.71,5.44,1.64,8.14,2.54,4.66,1.55,9.36,3.01,13.95,4.75,4.34,1.65,8.64,3.45,12.8,5.49,5.82,2.85,11.59,5.83,17.23,9.02,10.67,6.02,20.6,13.15,29.97,21.05,10.43,8.79,19.95,18.49,28.48,29.14,1.06,1.33,2.21,2.59,3.49,4.08,4.84-4.86,9.45-9.48,14.05-14.11.69-.69.5-1.48.1-2.21-2.33-4.21-3.59-8.69-3.87-13.53-.38-6.76.81-13.11,4.19-19,3.47-6.05,8.26-10.72,14.59-13.76,3.01-1.45,6.15-2.3,9.42-3.07,4.87-1.14,9.58-.56,14.2.55,4.27,1.03,8.26,3,11.83,5.72,5.5,4.18,9.35,9.56,11.73,15.99,1.06,2.86.95,2.91,3.94,2.91,15.36,0,30.72,0,46.07,0,.96,0,1.91.07,2.87.11v16.8c-.96.02-1.92.04-2.88.04-15.28,0-30.56,0-45.84,0-.64,0-1.28,0-1.92.01-1.1,0-1.71.53-2.06,1.61-.53,1.64-1.15,3.27-1.9,4.82-4.92,10.2-13.21,16.25-24.1,18.47-7.52,1.53-14.92.35-21.83-3.22-1.69-.87-1.71-.91-3.04.4-4.73,4.71-9.44,9.44-14.15,14.17-1.3,1.3-1.33,1.69-.36,3.3,1.29,2.16,2.64,4.28,3.9,6.46,3.48,6,6.82,12.08,9.6,18.44,1.42,3.24,2.8,6.51,4.12,9.8,1.36,3.39,2.67,6.8,3.89,10.23.82,2.31,1.47,4.68,2.2,7.02.86,2.79,1.84,5.55,2.55,8.37.88,3.53,1.58,7.11,2.29,10.69.94,4.76,2.1,9.51,2.64,14.32.86,7.62,1.38,15.29,1.87,22.94.57,8.89-.35,17.75-1.01,26.59-.36,4.85-1.18,9.67-1.88,14.49-.32,2.2-.82,4.37-1.29,6.55-.46,2.17-.98,4.32-1.47,6.49-.43,1.93-.75,3.9-1.29,5.8-.79,2.81-1.71,5.58-2.6,8.36-1.19,3.69-2.3,7.41-3.63,11.05-1.43,3.93-2.98,7.83-4.66,11.67-1.68,3.81-3.54,7.55-5.42,11.27-3.04,5.99-6.29,11.86-10.01,17.46-.64.96-.74,1.96.4,2.94,1.66,1.43,3.08,3.13,4.63,4.68,15.49,15.5,30.98,30.99,46.48,46.49,17.9,17.89,35.83,35.75,53.68,53.69,5.55,5.58,9.64,12.11,11.6,19.83.51,2,.98,4.01,1.47,6.02v12.48c-.51,2-1,3.99-1.53,5.99-1.84,7.03-5.43,13.12-10.4,18.34-4.9,5.15-10.66,9.1-17.5,11.36-2.48.82-4.93,1.67-7.57,1.9-.65.06-1.26.53-1.89.81h-11.04ZM17.28,213.49c-.09,108.32,87.62,196.05,196.02,196.18,53.79.06,100.41-19.13,138.62-56.97,38.62-38.24,57.35-85.3,58.37-139.52-1.1-54.94-20.33-102.38-59.85-140.77-38.31-37.22-84.68-55.54-138.12-55.48-106.71.13-195.43,87.56-195.05,196.56Zm362.73,205.16c.45.49.82.91,1.21,1.3,11.38,11.38,22.77,22.75,34.14,34.13,10.87,10.87,21.74,21.74,32.6,32.61,4.89,4.89,10.72,7.87,17.64,8.48,5.36.47,10.47-.55,15.24-3.12,7.96-4.28,12.83-10.96,14.37-19.77.66-3.78.53-7.72-.52-11.62-1.33-4.96-3.76-9.16-7.27-12.76-5.8-5.94-11.69-11.8-17.57-17.67-13.02-13.01-26.06-26-39.09-39-3.91-3.9-7.8-7.83-11.67-11.71-2.14,1.11-38.1,37.08-39.1,39.13Zm26.28-51.91c-7.28-7.29-14.58-14.61-21.91-21.9-1.13-1.13-1.66-1.04-2.71.23-1.67,2.01-3.29,4.07-4.97,6.07-9.21,10.93-19.54,20.72-30.59,29.75-2.14,1.75-2.15,1.84-.2,3.79,6.65,6.64,13.29,13.28,19.95,19.91.49.49,1.04.91,1.53,1.33,2.64-1.82,38.06-37.48,38.91-39.17Zm20.66-298.39c9.85.53,17.37-7.73,17.33-16.64-.04-9.77-6.88-17.02-16.87-17.32-9.08-.28-16.93,7.23-17.2,16.78-.26,9.23,8.01,17.77,16.74,17.18Z"/>
      <path class="cls-1" d="m208.7,392.61c-43.93-.56-86.32-17.65-121.03-52.15-35.11-34.89-52.87-77.76-52.8-127.17.07-49.12,17.79-91.73,52.65-126.48,35-34.9,77.86-51.78,127.17-52.53,99.41,1.22,178.35,80.83,178.32,179.51-.04,99.71-81.08,179.06-184.31,178.83Zm-121.76-196.21c-1.64,0-3.23,0-4.82,0-8.96,0-17.92,0-26.87,0-2.33,0-2.61.29-2.74,2.59-.12,2.16-.23,4.31-.3,6.47-.13,3.75-.32,7.51-.3,11.26.02,3.03.25,6.07.52,9.1.38,4.29.82,8.58,1.33,12.86.24,2.06.59,4.12,1.07,6.13,1.14,4.7,2.33,9.38,3.61,14.05.98,3.57,1.9,7.19,3.26,10.63,2.07,5.21,4.44,10.3,6.78,15.4,3.79,8.27,8.6,15.94,13.9,23.32,7.06,9.83,15.13,18.74,24.19,26.76,5.39,4.78,11.09,9.15,17.06,13.18,7.15,4.82,14.65,8.99,22.48,12.62,6.39,2.96,12.93,5.52,19.69,7.52,1.44.43,2.91.75,4.35,1.18,1.74.51,3.44,1.21,5.21,1.58,4.13.87,8.28,1.74,12.45,2.35,5.13.75,10.29,1.33,15.45,1.8,3.02.27,6.07.3,9.11.25,5.68-.08,11.37-.02,17.02-.53,5.71-.52,11.39-1.39,17.02-2.62,6.2-1.35,12.32-2.91,18.35-4.88,5.34-1.74,10.53-3.8,15.67-6.05,9.53-4.16,18.42-9.41,26.95-15.32,7.02-4.87,13.57-10.34,19.68-16.31,6.13-5.98,11.75-12.42,16.85-19.33,5.56-7.51,10.52-15.37,14.66-23.74,1.99-4.02,3.93-8.08,5.61-12.24,1.68-4.19,3.06-8.51,4.47-12.8.86-2.63,1.54-5.31,2.25-7.99.57-2.14,1.12-4.29,1.56-6.47.49-2.41.87-4.84,1.23-7.27.61-4.17,1.24-8.34,1.71-12.53.29-2.62.32-5.26.42-7.9.11-2.72.3-5.44.23-8.15-.12-4.15-.36-8.31-.68-12.45-.26-3.34-.71-6.66-1.08-9.98-.03-.24-.11-.47-.16-.7-.53-2.48-1.07-4.95-1.58-7.44-.43-2.1-.63-4.26-1.24-6.31-1.45-4.93-3.04-9.83-4.65-14.71-2.59-7.83-5.99-15.31-9.94-22.55-.88-1.62-1.36-1.77-2.6-.54-5.29,5.27-10.54,10.58-15.83,15.85-.85.84-1.08,1.61-.42,2.71,1.74,2.88,2.84,6.08,3.4,9.34,1.17,6.8.66,13.53-2.2,19.91-2.74,6.11-6.8,11.16-12.48,14.84-4.11,2.66-8.55,4.29-13.38,5.22-5.11.99-10.02.45-14.88-1.01-2.61-.79-5.1-1.97-7.82-3.05-.64.58-1.43,1.23-2.16,1.96-7.54,7.52-15.07,15.05-22.59,22.59-9.71,9.72-19.42,19.44-29.13,29.18-1.87,1.87-1.75,1.88-.61,4.29,1.98,4.18,3.36,8.55,3.48,13.23.08,2.95-.07,5.85-.8,8.77-.67,2.7-1.49,5.31-2.71,7.79-2.6,5.3-6.33,9.6-11.16,13.01-4.36,3.08-9.22,5.05-14.43,5.71-4.23.53-8.52.45-12.83-.59-5.73-1.38-10.75-3.92-14.98-7.84-7.65-7.1-11.52-15.89-11.26-26.46.12-4.99,1.55-9.55,3.64-13.96.95-1.99,1.03-2.16-.51-3.7-10.45-10.46-20.91-20.91-31.37-31.36-1.95-1.94-3.93-3.86-5.83-5.72-19.34,11.01-43.14,1.91-50.34-20.96Zm-.16-17.23c1.69-3.39,2.98-6.56,4.75-9.44,5.22-8.51,13.05-13.53,22.68-15.33,4.63-.86,9.47-.69,14.25.55,6.52,1.69,12.01,4.94,16.56,9.78,3.68,3.92,6.48,8.41,7.73,13.73.42,1.77.52,3.63,1.08,5.35,1.38,4.21.07,8.27-.66,12.29-.48,2.67-1.84,5.21-3.03,7.71-.52,1.09-.41,1.77.35,2.53,1.12,1.13,2.22,2.28,3.34,3.4,10.73,10.73,21.47,21.45,32.2,32.18,1.94,1.94,2.07,1.98,4.51.76,3.6-1.79,7.4-3,11.38-3.39,6.49-.63,12.7.5,18.54,3.51,2.02,1.04,2.45.96,3.99-.57,5.18-5.19,10.34-10.41,15.53-15.6,11.73-11.73,23.48-23.45,35.21-35.18,1.12-1.12,2.18-2.3,3.27-3.46-2.82-4.39-3.95-9.14-4.74-13.97-.66-4.01.05-8.01,1.06-11.85,1.39-5.31,4-10.07,7.75-14.18,5.12-5.63,11.43-9.37,18.85-10.54,7.3-1.16,14.6-.61,21.4,2.91,2.38,1.23,2.4,1.13,4.23-.72,2.69-2.72,5.4-5.42,8.11-8.12,3.11-3.1,6.23-6.18,9.34-9.28,1.64-1.64,1.67-2.02.25-4.06-1.08-1.56-2.18-3.11-3.37-4.59-6.51-8.08-13.55-15.65-21.41-22.43-6.34-5.48-12.98-10.55-20.17-14.87-3.66-2.2-7.37-4.35-11.14-6.34-3.68-1.94-7.41-3.81-11.23-5.43-4.01-1.7-8.13-3.16-12.26-4.56-3.29-1.12-6.66-2.03-10.01-2.95-3.51-.96-7.02-1.95-10.58-2.66-3.97-.79-7.99-1.45-12.02-1.86-5.16-.52-10.36-.83-15.54-1.05-4.95-.21-9.89.27-14.84.63-5.34.39-10.63.92-15.87,1.98-1.87.38-3.74.72-5.6,1.09-2.18.42-4.39.71-6.52,1.31-3.81,1.07-7.55,2.36-11.34,3.51-5.31,1.61-10.41,3.77-15.47,6.03-5.41,2.42-10.6,5.2-15.73,8.18-10.8,6.26-20.62,13.82-29.64,22.39-9.91,9.41-18.52,19.95-25.59,31.66-3.17,5.25-5.96,10.72-8.81,16.15-1.47,2.81-2.88,5.68-3.95,8.65-1.89,5.27-3.56,10.62-5.22,15.96-1.01,3.24-1.84,6.53-2.74,9.77,1.88.74,27.43,1.01,31.13.44Zm237.84-8.19c.69-9.21-8-17.16-16.89-17.08-9.65.1-17.28,8.06-17.06,17.15.23,9.8,7.45,16.86,17.22,16.95,8.89.09,17.14-7.4,16.72-17.03Zm-119.28,85.28c-8.98-.21-17,7.87-16.94,17.13.06,9.43,8.37,17.11,17.17,16.97,9.19-.15,16.88-7.87,16.91-17.1.03-8.76-7.47-17.21-17.14-17Zm-85.29-85.2c-9.31-.29-17.05,7.66-16.9,17.03.16,10.06,7.91,17.11,17.17,16.91,9.85-.21,16.74-7.37,16.85-17.02.11-9.37-7.59-17.23-17.12-16.92Z"/>
    </g>
  </g>
</svg>